<svg xmlns="http://www.w3.org/2000/svg" width="202" height="198" fill="none" viewBox="0 0 202 198"><path fill="#3071ff" d="M1 100h84v47H1zm53-49h84v47H54zm62 98h84v49h-84z"/><path fill="#155dfc" d="M86.764 146.549c7.306.745 76.748.483 79.85-.265.779-9.62.435-41.963-.453-44.865H86.764zm49.021-94.25c-7.34-.77-76.789-.494-79.853.276-.78 9.613-.437 41.971.45 44.864h79.403zm-52.05 49.135c-.91-.109-1.47-.235-2.029-.234q-39.046.045-78.093.118c-.12 0-.244.13-.355.215-.117.087-.222.193-.277.241v44.886c.778.089 1.34.209 1.9.209q39.046-.039 78.094-.106c.12 0 .247-.123.36-.206.118-.086.222-.192.4-.35zm35.678 94.364c7.616.723 76.715.46 79.883-.275v-45.686h-79.883zm-3.921-45.89c-8.713-.77-76.761-.461-79.885.324v45.649h79.885zM2.845 49.225l2.993-.001q38.59-.052 77.18-.119c.117 0 .24-.138.348-.227.113-.093.212-.204.314-.309.575-10.963.327-41.992-.4-45.724-.813-.037-1.672-.111-2.531-.11q-38.59.05-77.179.124c-.116 0-.24.143-.346.236-.11.097-.201.213-.38.407zM.226 51.96V.196C1.42.125 2.408.014 3.396.014 29.574.005 55.75.007 81.927.008c.735 0 1.472-.026 2.204.018 1.584.097 2.386.976 2.42 2.542.024 1.026.014 2.052.014 3.078v43.335c1.514.09 2.787.232 4.06.233 14.413.016 28.824.01 43.236.01q1.544-.002 3.088.012c1.603.017 2.437.877 2.537 2.423.067 1.022.023 2.051.023 3.077v42.937h4.291c6.471 0 12.942.042 19.412-.011 6.644-.056 6.383-.114 6.365 6.133-.037 12.751-.01 25.502-.011 38.253v4.819c10.935.034 21.58-.004 32.435.023v50.449c-.083.084-.181.196-.293.289-.108.09-.229.227-.348.232-1.467.059-2.934.134-4.401.134-54.542.007-109.083.006-163.829.006-.938-4.094-.329-8.028-.434-11.917-.112-4.099-.026-8.206-.026-12.31v-24.004H1.08c-.428-.445-.534-.548-.63-.658-.095-.107-.259-.222-.26-.333-.07-15.383-.129-30.766-.186-46.15-.006-1.445-.001-2.89-.001-4.784 4.624-.328 8.989-.126 13.34-.163 4.411-.037 8.824-.008 13.235-.008h26.156v-45.31c-3.341-.827-6.844-.293-10.3-.383-3.527-.092-7.059-.02-10.588-.02z"/></svg>