<svg xmlns="http://www.w3.org/2000/svg" width="51" height="51" fill="none" viewBox="0 0 51 51"><path fill="#155dfc" d="m25.32.821-.54-.039c-1.438-.104-2.852.172-4.239.441a22.9 22.9 0 0 0-6.834 2.487C11.615 4.88 9.732 6.32 7.99 7.94c-.738.686-1.357 1.51-1.974 2.315-1.923 2.508-3.396 5.246-4.318 8.29C.972 20.936.75 23.38.666 25.849c-.018.53.152 1.067.15 1.6-.004 1.248.25 2.453.522 3.656a23.2 23.2 0 0 0 2.705 6.763c1.137 1.92 2.423 3.72 4.02 5.284.361.354.762.669 1.157.987.863.695 1.693 1.441 2.609 2.059 2.009 1.354 4.211 2.325 6.522 3.041 1.175.364 2.366.668 3.6.785.973.092 1.94.24 2.912.35.144.015.296-.048.457-.077zM0 26.283c.068-7.987 2.67-14.27 7.97-19.278C12.83 2.415 18.688.025 25.444 0c6.87-.025 12.813 2.413 17.723 7.089 5.192 4.944 7.818 11.16 7.834 18.36.016 7.09-2.508 13.232-7.553 18.199-4.956 4.878-10.97 7.377-17.99 7.352-7.012-.025-13-2.534-17.948-7.442C2.547 38.636.161 32.583 0 26.283"/></svg>