<svg xmlns="http://www.w3.org/2000/svg" width="292.295" height="284.64" viewBox="0 0 292.295 284.64"><g fill="none"><g stroke-width="1.2"><circle cx="147.557" cy="138.08" r="137.48" fill="#f2ffff" stroke="#454db1"/><path stroke="#8f94d0" d="M18.368 185.101h258.378M75.724 255.302V20.859m34.674 249.232L28.495 69.341 276.746 185.1 75.724 255.3l-57.356-70.2L28.495 69.34M12.48 249.349l63.244 5.953"/><path stroke="#dadbef" d="m12.48 249.349 5.888-64.248"/><path stroke="#ff4136" d="M138.967 120.854 12.48 249.349M28.495 69.34l47.229-48.48"/></g><path stroke="#454db1" stroke-width="1.3" d="m75.724 255.302 63.243-134.448"/></g><path d="M18.368 182.834a2.27 2.27 0 0 0-2.268 2.267 2.27 2.27 0 0 0 2.268 2.268 2.27 2.27 0 0 0 2.267-2.268 2.27 2.27 0 0 0-2.267-2.267M28.495 67.072a2.27 2.27 0 0 0-2.267 2.268 2.27 2.27 0 0 0 2.267 2.268 2.27 2.27 0 0 0 2.268-2.268 2.27 2.27 0 0 0-2.268-2.268m248.251 115.762a2.27 2.27 0 0 0-2.268 2.267 2.27 2.27 0 0 0 2.268 2.268 2.27 2.27 0 0 0 2.268-2.268 2.27 2.27 0 0 0-2.268-2.267m-201.022 70.2a2.27 2.27 0 0 0-2.268 2.268 2.27 2.27 0 0 0 2.268 2.267 2.27 2.27 0 0 0 2.267-2.267 2.27 2.27 0 0 0-2.267-2.268m0-234.443a2.27 2.27 0 0 0-2.268 2.268 2.27 2.27 0 0 0 2.268 2.268 2.27 2.27 0 0 0 2.267-2.268 2.27 2.27 0 0 0-2.267-2.268m34.674 249.232a2.27 2.27 0 0 0-2.268 2.268 2.27 2.27 0 0 0 2.268 2.268 2.27 2.27 0 0 0 2.267-2.268 2.27 2.27 0 0 0-2.267-2.268m28.569-149.237a2.27 2.27 0 0 0-2.268 2.268 2.27 2.27 0 0 0 2.268 2.268 2.27 2.27 0 0 0 2.268-2.268 2.27 2.27 0 0 0-2.268-2.268m-63.243 64.248a2.27 2.27 0 0 0-2.268 2.267 2.27 2.27 0 0 0 2.268 2.268 2.27 2.27 0 0 0 2.267-2.268 2.27 2.27 0 0 0-2.267-2.267M12.48 247.081a2.27 2.27 0 0 0-2.267 2.268 2.27 2.27 0 0 0 2.267 2.268 2.27 2.27 0 0 0 2.268-2.268 2.27 2.27 0 0 0-2.268-2.268m-7.751-57.58 1.287.039c.195 0 .286-.104.286-.299 0-.117-.078-.195-.247-.208-.377-.013-.559-.143-.559-.39 0-.117.117-.377.364-.767l.767-1.3h3.159a5 5 0 0 0 .052.559l.143 1.534c0 .247-.286.364-.871.364-.247 0-.364.104-.364.312q0 .195.234.195l1.612-.039 1.443.039c.195 0 .286-.104.286-.312q0-.195-.351-.195c-.364 0-.585-.026-.65-.065s-.117-.156-.13-.351l-.78-8.034c-.039-.247-.026-.351-.299-.351-.156 0-.286.078-.377.247l-4.472 7.501c-.39.65-.91 1.001-1.547 1.053q-.312.02-.312.312c0 .13.078.195.221.195zm4.615-7.462.39 4.03H6.939ZM25.297 59.447c0-1.183-1.17-1.82-2.444-1.82h-4.316c-.299 0-.429.013-.429.312 0 .208.26.195.416.195l.689.052c.065.013.091.052.091.117 0 .026-.013.104-.052.234l-1.716 6.903c-.065.286-.195.455-.39.52-.091.026-.325.039-.728.039-.273 0-.403.104-.403.312 0 .13.13.195.403.195h4.589c.845 0 1.625-.26 2.366-.767.819-.559 1.235-1.248 1.235-2.054 0-1.027-.845-1.651-1.768-1.833 1.144-.273 2.457-1.144 2.457-2.405m-2.626-1.313c.897 0 1.352.416 1.352 1.261 0 .663-.26 1.209-.806 1.651a2.82 2.82 0 0 1-1.82.65H19.59l.78-3.12c.104-.442.104-.442.65-.442zm.364 4.485a1.73 1.73 0 0 1 .273.923c0 .676-.26 1.261-.793 1.742s-1.131.715-1.82.715H18.94l-.273-.013c-.078 0-.117-.026-.117-.065a.4.4 0 0 1 .013-.104l.923-3.731h2.392c.559 0 .936.182 1.157.533m261.304 123.945c0-1.664.728-3.354 1.547-4.29.663-.767 1.807-1.534 3.094-1.534 1.352 0 2.015 1.027 2.015 2.431 0 .117-.039.533-.039.65s.078.182.247.182a.5.5 0 0 0 .156-.026.9.9 0 0 0 .13-.273l.806-3.289c0-.117-.065-.182-.195-.182-.052 0-.13.052-.234.169l-.845.949c-.507-.741-1.222-1.118-2.145-1.118-.715 0-1.417.169-2.132.494-1.443.676-2.496 1.742-3.172 3.198a5.1 5.1 0 0 0-.507 2.184c0 1.04.325 1.885.988 2.561s1.508 1.014 2.548 1.014c1.027 0 1.963-.377 2.808-1.118.351-.299.65-.663.897-1.066.351-.585.533-.988.533-1.235 0-.117-.065-.182-.208-.182-.117 0-.182.052-.208.169-.273.845-.702 1.521-1.287 2.002-.741.611-1.521.923-2.327.923-1.56 0-2.47-1.053-2.47-2.613M77.687 260.971h-4.316c-.299 0-.442.013-.442.299 0 .143.143.208.429.208.26 0 .78-.039.78.169 0 .026-.013.104-.052.234l-1.716 6.903c-.065.286-.195.455-.39.52-.091.026-.325.039-.728.039-.286 0-.416.026-.416.299 0 .143.143.208.416.208h4.251c.884 0 1.729-.26 2.548-.793 1.391-.897 2.717-2.652 2.717-4.784 0-1.924-1.183-3.302-3.081-3.302m1.859 2.821c0 1.469-.663 3.25-1.339 4.121a3.54 3.54 0 0 1-2.938 1.43h-1.443l-.286-.013c-.078 0-.117-.026-.117-.065 0-.026.026-.117.065-.286l1.755-7.059c.117-.429.104-.442.65-.442h1.378c1.456 0 2.275.858 2.275 2.314M65.18 9.496c0 .13.143.195.416.195.52 0 .78.052.78.169 0 .039-.026.13-.065.299l-1.69 6.799c-.065.286-.195.455-.39.52-.091.026-.325.039-.728.039-.286 0-.416.026-.416.299 0 .143.143.208.416.208h6.669c.312 0 .338-.026.442-.247l.52-1.17.741-1.807c-.026-.117-.065-.195-.208-.195-.091 0-.169.065-.221.182-.325.767-.637 1.352-.949 1.768-.52.702-1.287.962-2.509.962h-1.885l-.273-.013c-.078 0-.117-.026-.117-.065 0-.026.026-.117.065-.286l.858-3.471h1.235c.611 0 .936.078 1.001.247a.8.8 0 0 1 .039.286c0 .169-.026.377-.091.624a.5.5 0 0 0-.039.156c0 .13.078.195.221.195.117 0 .195-.104.247-.299l.728-3.016c0-.13-.065-.195-.208-.195-.104 0-.182.091-.221.273-.13.507-.299.832-.52.988s-.585.234-1.118.234h-1.144l.754-3.029c.104-.442.104-.455.65-.455h1.807q.995 0 1.365.195.546.293.546 1.17c0 .221-.013.455-.052.676 0 .026 0 .065-.013.117v.117c0 .143.065.208.195.208s.208-.117.234-.364l.26-2.223c.039-.364-.052-.403-.403-.403h-6.487c-.299 0-.442.013-.442.312m42.754 266.616c0 .13.143.195.416.195.52 0 .78.052.78.169 0 .039-.026.13-.065.299l-1.69 6.799c-.078.286-.208.455-.39.52-.091.026-.325.039-.728.039-.286 0-.416.026-.416.299 0 .143.078.208.247.208l1.69-.039 1.924.039c.208 0 .312-.104.312-.299 0-.221-.143-.208-.481-.208-.572 0-.897-.026-.975-.091-.039-.013-.052-.065-.052-.13l.832-3.445h1.209c.598 0 1.014.026 1.014.52 0 .169-.026.377-.091.624-.013.039-.026.091-.039.143 0 .143.065.208.208.208.065-.013.156-.104.247-.299l.702-2.795c.026-.104.039-.182.039-.221-.039-.117-.117-.182-.208-.182-.104 0-.182.104-.234.299-.13.494-.312.806-.52.962q-.312.234-1.092.234h-1.105l.806-3.198c.104-.442.104-.455.65-.455h1.69c1.261 0 1.833.195 1.833 1.352 0 .26-.013.494-.039.689l-.026.234c0 .143.065.208.195.208s.208-.117.234-.364l.26-2.223c.039-.364-.052-.403-.403-.403h-6.292c-.299 0-.442.013-.442.312m33.165-169.806h-4.16c-.299 0-.442.013-.442.299 0 .143.143.208.429.208.26 0 .78-.039.78.169 0 .026-.013.104-.052.234l-1.716 6.903c-.078.286-.208.455-.39.52-.091.026-.325.039-.728.039-.286 0-.416.026-.416.299 0 .143.078.208.247.208l1.625-.039.832.013.832.026q.312 0 .312-.312c0-.13-.143-.195-.416-.195-.52 0-.78-.052-.78-.169 0 0 .013-.039.039-.208l.78-3.172h2.145c.845 0 1.651-.26 2.405-.767.845-.559 1.261-1.248 1.261-2.067 0-1.287-1.222-1.989-2.587-1.989m-.403.507c1.131 0 1.69.39 1.69 1.17 0 .728-.364 1.703-.741 2.041q-.741.663-1.95.663h-1.742l.858-3.432c.104-.442.104-.442.65-.442zm-58.16 90.314c.377 0 .78-.065 1.209-.182a15 15 0 0 0-.052.923c0 .975.377 1.469 1.118 1.469.793 0 1.404-.637 1.703-1.222.325-.676.494-1.118.494-1.326 0-.117-.065-.182-.195-.182-.091 0-.156.052-.195.169-.195.598-.728 1.209-1.456 1.209-.663 0-.754-.533-.858-1.248 1.092-.429 2.015-1.17 2.756-2.236s1.118-2.171 1.118-3.328c0-1.027-.299-1.859-.91-2.522s-1.417-1.001-2.418-1.001c-.689 0-1.378.169-2.067.52-1.404.689-2.431 1.781-3.094 3.25-.325.741-.494 1.469-.494 2.21 0 2.041 1.326 3.497 3.341 3.497m4.407-6.37c0 .793-.195 1.703-.585 2.756-.455 1.209-1.157 2.106-2.132 2.678q-.078-.429-.234-.78-.253-.585-.936-.585a1.42 1.42 0 0 0-1.365 1.365c0 .117.013.234.039.325-.871-.403-1.3-1.222-1.3-2.47 0-.546.104-1.209.325-1.989q.683-2.477 2.457-3.51.839-.468 1.56-.468c1.43 0 2.171 1.183 2.171 2.678m-3.887 4.459c.481 0 .728.351.728 1.04 0 .117-.039.182-.117.208a2.7 2.7 0 0 1-1.053.234q-.546 0-.546-.507c0-.494.494-.975.988-.975M9.074 254.159c0-.663-.338-1.17-1.001-1.534-.533-.299-1.17-.442-1.885-.442H2.522c-.299 0-.429.013-.429.312 0 .091.039.156.117.169l.299.026.676.052c.065.013.104.052.104.117 0 .026-.013.104-.052.234l-1.716 6.903c-.065.286-.195.468-.39.533-.091.026-.325.039-.728.039-.286 0-.403.013-.403.299q0 .214.234.195l1.612-.039 1.638.039c.208.013.312-.104.312-.299 0-.13-.143-.195-.416-.195-.52 0-.78-.065-.78-.182a1 1 0 0 1 .039-.208l.832-3.367h1.495c.897 0 1.352.377 1.352 1.118 0 .117-.065.403-.182.871-.143.546-.208.91-.208 1.105 0 .988.767 1.443 1.755 1.443.364 0 .715-.169 1.066-.494s.533-.676.533-1.04c0-.13-.065-.195-.208-.195-.091 0-.169.065-.208.208-.143.403-.325.702-.533.871s-.403.26-.598.26c-.299 0-.455-.247-.455-.728 0-.312.039-.793.13-1.456a4.4 4.4 0 0 0 .052-.611c0-.689-.364-1.196-1.092-1.508 1.222-.299 2.704-1.17 2.704-2.496m-1.69-1.105q.39.253.39.858c0 .26-.052.559-.169.91q-.527 1.599-2.652 1.599H3.575l.819-3.289q.097-.41.312-.429c.065-.013.325-.013.78-.013.845 0 1.339.026 1.898.364"/></svg>