<svg xmlns="http://www.w3.org/2000/svg" width="46" height="40" fill="none" viewBox="0 0 46 40"><path fill="#155dfc" d="M33.786.646C32.693.496 12.79.523 12.166.659c3.582 6.193 7.132 12.401 10.817 18.702zM23.497 20.308l10.841 18.745c.05-.034.116-.055.14-.099a25540 25540 0 0 0 10.41-17.992c.086-.149.157-.307.23-.463.011-.023.004-.057-.003-.084-.006-.025-.023-.046-.059-.107zm-.52.498c-.067.045-.163.074-.2.138Q17.521 30.05 12.28 39.166c-.023.04.007.11.012.167.609.152 20.525.18 21.385.03-.335-.947-10.01-17.682-10.7-18.557M.687 19.707h21.756c-3.622-6.25-7.13-12.5-10.82-18.67-.14.092-.236.122-.273.186C7.804 7.365 4.26 13.51.687 19.707m23.853-1.849c-.124.307-.22.63-.382.917-.173.302-.408.57-.672.93h1.118l.08-.63.346.637h.952l.326-.551.26.538h.831l.28-.583.329.6h.94q.067-.305.388-.463v.462h.972c.101-.176.192-.33.327-.562.12.246.19.39.267.552h1.019c-.03-.21-.178-.45.167-.469.418-.022.078.366.235.476h.936l.385-.652c.023.35.032.495.04.637h1.136l.109-.618c.151.316.22.46.303.63h1.043c-.12-.318-.004-.453.302-.44l.225.477.815-.046.288-.587.337.598h.958c-.06-.251-.018-.455.249-.43.067.006.112.286.163.43h.926c.105-.176.196-.328.326-.542l.253.53h.927c.084-.197.116-.42.198-.439.443-.105.151.352.29.446h.938l.411-.633v.613h1.227l-.33-.872h-.445c.02-.235.114-.465.038-.604-.365-.68-.71-1.392-1.2-1.977-.246-.292-.449-.548-.474-.908l-.68-.167.35-.436c-.232-.38-.474-.765-.704-1.157-.217-.371-.333-.881-.65-1.093-.464-.31-.283-.851-.617-1.157-.022-.018-.052-.026-.077-.039l-.01-.01c-.049-.131-.075-.275-.146-.39-.33-.532-.744-1.026-.985-1.594-.162-.385-.343-.623-.626-.656-.066-.341-.072-.62-.18-.853-.19-.412-.404-.827-.682-1.183-.472-.604-.644-1.458-1.401-1.7.029-.204.109-.37.057-.47-.415-.8-.708-1.681-1.438-2.286-.06-.048-.123-.16-.105-.216.144-.41-.193-.597-.376-.856-.01-.026-.016-.057-.034-.078-.01-.013-.039-.013-.059-.019l.09.1c-.06.113-.098.245-.182.334-.09.093-.269.118-.328.22-.406.71-.792 1.434-1.164 2.118l.353.554h-.776c-.015.217-.027.427-.041.649-.944.62-1.143 1.756-1.779 2.56l.37.451-.71-.054c.07.57-.39.871-.64 1.296-.259.437-.433.923-.645 1.387l.004-.003c-.307.114-.358.38-.424.572l.244.324c-.232.132-.495.194-.6.358-.55.854-1.061 1.733-1.583 2.606-.114.193-.114.402-.124.628-.007.163-.378.28-.495.474-.465.752-.894 1.526-1.335 2.291zM34.477 40H12.382c-.201 0-.404-.007-.605 0-.26.01-.429-.104-.557-.328a179 179 0 0 0-1.209-2.08c-1.146-1.95-2.305-3.892-3.44-5.848-.95-1.635-1.872-3.285-2.81-4.926L.302 20.776c-.1-.174-.227-.348-.265-.538-.04-.209-.067-.476.029-.647.781-1.4 1.593-2.783 2.397-4.171l2.628-4.534c1.048-1.809 2.1-3.615 3.144-5.426.93-1.613 1.867-3.223 2.773-4.85.24-.429.523-.61 1.022-.609q10.948.019 21.895 0c.458 0 .726.117.954.544.595 1.11 1.255 2.186 1.89 3.274.592 1.014 1.188 2.025 1.777 3.04q1.163 2.008 2.323 4.016 1.099 1.896 2.195 3.792 1.266 2.197 2.528 4.395c.085.15.153.312.25.452.259.359.165.687-.035 1.034-1.135 1.958-2.253 3.926-3.393 5.881-.822 1.41-1.673 2.8-2.499 4.208-.552.939-1.079 1.892-1.621 2.836q-1.39 2.421-2.792 4.835c-.317.544-.651 1.077-1.025 1.692"/><path fill="#155dfc" d="m28.191 13.54-.5.297-.176-.31c.084-.043.167-.12.25-.12.106 0 .21.061.426.133m10.729-3.528-.319.189-.174-.31c.084-.043.178-.131.247-.115.082.019.14.13.246.236m-10.515 6.213c-.08-.175-.159-.272-.16-.373-.004-.08.083-.162.131-.243l.303.187c-.057.088-.114.177-.274.43m4.772-1.901c-.217.13-.302.22-.382.215-.082-.005-.159-.103-.239-.16.084-.09.155-.222.257-.254.07-.022.185.095.364.2m-1.561-4.29-.398.122-.002-.37.398.117q0 .066.002.131m6.578 3.639-.4.118.001-.371.4.123zm-1.675.243c-.132-.126-.283-.229-.27-.264.045-.106.152-.185.234-.275.064.076.167.146.18.229.01.078-.075.17-.144.31m-4.442.022c-.098-.122-.213-.205-.206-.272.01-.089.12-.166.185-.249.087.087.192.164.247.267.015.03-.119.137-.226.253m.096-5.126c.068.188.154.304.129.385-.034.105-.157.182-.243.271-.067-.081-.174-.156-.188-.246-.01-.066.103-.15.302-.41m-3.711 5.24c.089.117.187.227.18.235-.088.09-.189.163-.287.24-.044-.057-.14-.138-.126-.166.051-.104.139-.191.233-.309m5.864-11.579c.03.091.103.194.081.27-.021.073-.138.118-.215.176-.032-.099-.082-.195-.09-.296-.008-.079.037-.162.06-.243zm-.51.93-.283.214c-.046-.087-.119-.17-.13-.262-.007-.05.11-.17.13-.162.086.035.154.108.283.21m.364 11.212c-.029-.076-.082-.154-.079-.228.007-.101.059-.2.09-.3.076.059.193.104.216.177.022.076-.048.18-.078.272zm.343-10.428c-.107.054-.197.135-.244.115-.08-.036-.183-.134-.183-.207-.002-.071.114-.144.176-.217.06.075.123.15.251.31m1.261-.337c.062.142.12.254.154.373.004.012-.169.105-.183.09a1 1 0 0 1-.187-.297c-.007-.018.112-.087.215-.166m.001 10.207c.064.142.12.254.154.373.004.013-.169.105-.183.09a1 1 0 0 1-.187-.297c-.007-.019.112-.088.215-.166m-3.791.743.311.255c-.073.063-.146.175-.219.175-.07 0-.169-.104-.203-.184-.02-.048.06-.138.11-.246m1.026-9.162c-.092.031-.196.103-.272.08-.073-.022-.118-.141-.176-.218.1-.031.197-.08.299-.088.08-.007.165.034.249.054q-.051.086-.1.173M31.64 15.866c-.12.09-.182.139-.245.187-.076-.1-.156-.197-.22-.304-.006-.008.135-.136.164-.122.101.054.185.143.3.239m4.153-.313c.079.113.17.207.153.227-.067.098-.165.175-.252.26-.054-.058-.164-.147-.152-.17.056-.104.146-.191.251-.317m3.119.313c-.117.091-.181.14-.244.187-.076-.1-.156-.198-.22-.306-.004-.007.136-.136.165-.121.103.055.189.146.3.24m-11.166 1.887.226.284c-.087.048-.169.122-.261.136-.052.008-.175-.106-.166-.13.03-.086.103-.157.201-.29m1.69.321c-.15.05-.255.122-.331.1-.072-.023-.114-.144-.17-.221.1-.032.198-.087.296-.086.051 0 .101.098.205.207m2.652-.321.217.286c-.087.048-.17.12-.262.133-.051.008-.172-.11-.163-.131.034-.087.108-.157.208-.288m4.332.526c-.1-.134-.16-.21-.217-.286.088-.047.173-.12.266-.133.05-.006.169.111.162.133-.036.086-.109.156-.21.286m6.116-.185c-.092.03-.197.1-.274.077-.073-.022-.116-.142-.17-.219.099-.03.197-.08.298-.086.077-.005.157.045.235.07zm-9.995-10.28c-.226.093-.301.15-.372.147-.1-.006-.198-.058-.297-.09.058-.076.105-.194.18-.216.074-.022.177.051.489.16m4.333-.01c-.31.107-.413.18-.49.158-.073-.02-.12-.138-.18-.213.1-.033.198-.086.298-.093.07-.004.147.055.372.148m-3.635.694c-.315.108-.419.18-.495.158-.073-.02-.12-.138-.176-.214.097-.031.195-.083.295-.089.071-.004.148.053.376.145m-2.626.327c.107.31.18.412.157.488-.022.074-.14.121-.214.18-.032-.1-.085-.197-.09-.297-.004-.072.055-.147.147-.37m5.793.699c-.091-.12-.14-.181-.19-.244l.3-.23c.044.059.139.142.124.17-.051.104-.14.188-.234.304m1.489-.713c.093.234.15.31.146.383-.007.1-.058.197-.09.296-.075-.058-.193-.103-.212-.175-.022-.078.05-.18.156-.504m-7.713 1.162-.286.215c-.048-.087-.121-.17-.134-.263-.007-.05.11-.171.132-.162.087.034.157.108.288.21m2.672-.297c.077.113.164.207.148.227-.07.097-.167.172-.256.255-.054-.058-.164-.149-.152-.169.06-.103.152-.19.26-.313m1.668.207-.25.305c-.065-.073-.18-.146-.18-.219 0-.071.104-.168.186-.204.046-.02.135.062.244.118m2.665-.38c.11.326.183.429.162.505-.021.073-.14.118-.215.175-.032-.098-.084-.195-.091-.295-.004-.073.051-.15.144-.385M32.87 16.04l-.305-.25c.073-.064.146-.178.219-.178.071 0 .17.105.205.186.02.045-.064.135-.12.243m.146-4.521c-.09.03-.195.1-.272.077-.073-.022-.116-.142-.173-.218.1-.031.198-.08.3-.088.081-.008.169.03.254.048q-.053.09-.109.18m3.189-.064c-.242.09-.32.145-.396.14-.1-.006-.195-.058-.295-.09.057-.076.103-.195.176-.216.077-.022.18.05.514.166m-4.113.945c-.102-.13-.16-.206-.22-.281.086-.048.17-.121.26-.134.05-.008.173.107.164.13-.033.084-.105.154-.204.285m-1.253 1.237-.2.19c-.059-.102-.128-.198-.167-.306-.01-.02.148-.135.164-.122.074.057.128.144.203.238m2.993-.119-.254.307c-.064-.072-.181-.146-.18-.217.002-.073.105-.17.187-.207.047-.02.14.062.248.117m6.996.566c-.093-.242-.148-.319-.145-.392.007-.1.059-.199.091-.298.077.058.194.104.217.178.022.076-.051.18-.163.512m-5.695-.609-.112.346-.21-.081.146-.342zM35.103 3.23q-.05.195-.103.39c-.05-.014-.142-.038-.142-.04q.047-.201.103-.4zm-5.215 10.863c.05.123.101.245.144.37.002.004-.09.039-.137.06q-.072-.188-.148-.374zm1.609.087-.128.34c-.066-.034-.192-.09-.189-.098.041-.114.102-.222.157-.331zm4.803.712.338.129c-.034.065-.09.191-.096.188-.116-.042-.223-.101-.331-.157q.042-.08.089-.16m-.785-9.302c.108-.057.215-.117.329-.16.007-.003.064.122.1.188l-.335.135zm-3.909 5.824c-.109.058-.216.121-.33.166-.009.003-.067-.12-.103-.185l.335-.141zm-1.856 4.597.14-.385c.048.019.14.05.14.054-.04.131-.09.26-.139.39zm5.275-9.943c.09.125.171.2.19.29.011.042-.108.166-.145.158-.088-.021-.22-.094-.226-.158-.01-.074.096-.162.181-.29m1.189.226c.121-.05.242-.101.367-.144.003-.001.04.088.06.135l-.372.148zm-4.608.8c-.129.042-.255.085-.383.119-.004.001-.032-.09-.05-.138l.393-.123zm1.012-.148.383.137a1 1 0 0 1-.055.136 7 7 0 0 1-.377-.136zm6.152 7.234-.128.341c-.066-.033-.192-.09-.188-.098.04-.115.1-.223.156-.332zm-2.558-2.009c.123-.05.244-.101.37-.144.004-.001.038.089.06.136l-.385.151zm1.912.141-.375-.15c.02-.047.055-.137.058-.136.127.043.25.096.372.147zm-6.57 6.568-.381-.139c.02-.047.053-.136.057-.134.126.04.25.09.374.137zm-3.117-6.215c.092.099.206.183.194.217-.036.088-.126.154-.194.228-.06-.056-.18-.123-.17-.168.015-.09.099-.17.17-.277m1.308.395.155-.364c.048.02.136.056.136.06q-.072.184-.152.364zm1.9-.135c-.11.07-.19.154-.282.167-.05.007-.115-.107-.174-.166.076-.068.144-.159.233-.192.036-.014.12.1.223.191m1.128-.258c.093.1.207.187.194.217-.039.088-.13.152-.199.226-.06-.057-.176-.125-.17-.17.017-.09.102-.167.175-.273m7.368 1.436.139.343-.217.066-.103-.355zm-4.169-1.194c-.101.08-.172.168-.262.191-.042.012-.178-.131-.167-.155a.5.5 0 0 1 .201-.218c.029-.015.123.095.228.182m5.786 1.387c-.09.09-.155.158-.223.225-.05-.05-.155-.124-.144-.147.04-.09.117-.163.18-.244zM38.91 12.92c-.106.087-.202.197-.228.182a.5.5 0 0 1-.2-.22c-.01-.024.125-.165.167-.154.09.023.16.112.26.191m1.041.108.14-.328c.064.034.185.092.183.1-.045.113-.107.219-.164.326zm-.583-2.113c-.08-.1-.17-.172-.194-.261-.01-.041.131-.178.156-.166.09.04.175.115.221.2.016.025-.094.121-.183.227m-.164 3.992.376.142c-.02.047-.052.136-.057.135-.127-.042-.253-.093-.378-.142zm-1.025-4.192q-.18.077-.367.143c-.004 0-.04-.088-.059-.135l.381-.149zm-2.488-.466c-.069-.143-.156-.241-.136-.312.016-.064.146-.125.231-.133.043-.004.15.13.136.169-.032.087-.121.152-.23.276m-.173-1.71c.121-.05.242-.102.365-.145.004-.002.04.087.059.134l-.365.149zm4.449 7.475.139-.385c.048.02.14.052.138.056-.039.129-.089.254-.135.38zm-4.99-6.52-.137-.383q.072-.026.146-.05l.13.384zm-1.586-.051.135-.383.146.053-.142.38zm6.239 4.198c-.137.073-.236.168-.3.149-.066-.02-.127-.15-.134-.237-.005-.045.13-.155.164-.141.087.034.15.122.27.23m-11.661 1.411c-.128.043-.253.088-.383.124-.003.001-.032-.09-.05-.137l.394-.126q.017.07.039.139m1.034-.154c.116.035.231.066.342.114.007.004-.04.133-.06.204l-.337-.138q.026-.09.055-.18m12.737 1.055-.344-.116.084-.208.338.15zm-15.736.513.343-.138.07.215-.355.1zm1.915.167-.386-.132c.02-.047.051-.138.055-.136q.197.061.388.135zm8.293-.158.388-.108q.023.075.041.151l-.391.1zm1.88.175-.343-.123c.033-.067.089-.195.1-.192.115.04.224.1.334.154zm-11.318.488.35.122c-.036.068-.091.197-.1.194-.116-.04-.227-.1-.337-.155zm4.826.177-.388.107-.04-.15.389-.103q.018.074.04.146m1.039-.173.349.106q-.034.106-.066.214l-.344-.141zm4.304.025.393.105c-.016.05-.04.143-.044.143-.132-.03-.26-.07-.388-.107q.018-.07.04-.14m1.92.108c-.116.057-.232.115-.35.165-.004.002-.045-.085-.07-.13q.175-.087.354-.173zm2.949.004c-.119.055-.238.112-.36.16-.005.002-.044-.087-.067-.134l.376-.168zM31.56 8.657l-.383-.105c.014-.05.037-.142.04-.141.132.03.262.068.392.105q-.023.07-.05.14m-2.209 5.033c-.085.035-.174.1-.258.094-.053-.003-.155-.143-.14-.167.047-.082.131-.184.213-.196.093-.014.2.059.3.094zm.098-1.542c-.137.076-.217.144-.306.159-.052.009-.118-.068-.178-.106.075-.072.142-.161.231-.206.034-.017.12.069.253.152m6.812-1.566.382.137c-.018.048-.05.139-.054.138-.128-.04-.253-.09-.38-.137zm-10.964 8.154c.126-.042.25-.086.379-.122.004 0 .032.09.05.137l-.385.124q-.02-.07-.044-.139m3.291.154-.358-.163c.024-.046.063-.133.066-.132.121.048.237.104.355.159zm3.981-.153c.126-.043.252-.087.38-.123.004 0 .033.09.05.137l-.386.123zm2.96-.028.34-.133q.032.106.062.213l-.35.102zm6.209.185-.347-.119.09-.203.335.154zm1.054-.146c.12-.05.242-.102.365-.146.003-.001.039.087.058.134l-.377.152zM35.12 7.565l-.134.388c-.048-.019-.139-.051-.137-.056.037-.128.084-.254.13-.38zm-7.933 8.195c-.101.072-.17.156-.215.145-.055-.015-.102-.103-.128-.17-.007-.018.076-.106.107-.1.067.012.126.064.236.124m7.845-5.216.178.138-.15.178-.218-.186c.06-.04.119-.08.19-.13m-.58-2.023c-.107.057-.167.106-.235.118-.029.005-.107-.084-.1-.104.027-.064.077-.151.13-.162.047-.008.11.076.205.149m-.182 7.463c-.074-.102-.162-.171-.151-.216.016-.057.105-.104.17-.133.019-.007.108.076.102.109-.01.067-.06.129-.12.24m2.937-4.337c-.072-.1-.157-.17-.145-.213.015-.055.104-.1.17-.126.019-.007.106.076.1.106-.013.067-.065.126-.125.233m2.116.343c.077.054.16.085.189.143.018.038-.054.169-.068.166-.092-.017-.178-.06-.267-.093.045-.066.09-.13.146-.216m-.534-.538c-.107.06-.167.11-.235.123-.03.006-.112-.083-.103-.102.027-.065.075-.153.13-.166.044-.01.112.074.208.145m-4.908-6.571c-.169.069-.24.112-.315.122-.04.006-.13-.047-.128-.07.005-.07.043-.14.066-.209zm.873.026c.083-.08.137-.167.188-.167s.114.086.143.147c.012.025-.057.125-.082.122-.072-.01-.137-.053-.25-.102m-.294.646c-.099.073-.168.158-.211.146-.057-.015-.103-.102-.13-.169-.007-.019.075-.107.105-.101.068.012.128.063.237.124m-5.07 11.052h-.46c.156-.376.277-.272.46 0m2.934-.001h-.463c.167-.339.288-.295.463 0m1.436-.145c-.1.07-.165.15-.213.14-.052-.01-.1-.1-.123-.165-.007-.02.075-.106.103-.1.068.012.126.063.233.125m1.504.145h-.453c.156-.363.275-.29.453 0M31.869 6.295c.101-.039.201-.086.306-.107.016-.003.055.122.084.187l-.36.039zm1.538.228.036-.352c.067.027.197.07.194.08-.025.105-.072.205-.112.305zm6.183 10.089-.444.02q.21-.291.443-.02m1.264.063c-.075-.098-.162-.166-.15-.207.017-.057.1-.104.166-.132.016-.008.105.073.1.105-.009.066-.059.126-.116.233m1.232-.172c.102-.039.203-.085.31-.108.012-.002.051.122.078.187l-.36.037zm-16.363.799-.308.102-.066-.202.348-.022zm8.918-5.171c.159-.069.228-.115.305-.127.041-.006.132.05.13.072-.005.073-.045.143-.07.214zm-6.005 5.022c-.12.427-.248.296-.442.03zm1.651.143-.42.166c-.025-.071-.06-.141-.066-.214-.001-.02.09-.071.134-.067.077.008.153.047.352.115m4.171-4.47c-.098.07-.165.153-.208.142-.055-.015-.102-.1-.126-.165-.008-.02.073-.106.101-.1.066.012.127.063.233.123m2.756.211c-.073-.096-.157-.163-.146-.203.016-.056.1-.101.164-.13.016-.006.101.073.098.103-.011.065-.06.124-.116.23m-2.95 4.486c-.07-.1-.155-.173-.14-.215.016-.056.106-.1.172-.124.02-.007.103.078.098.108-.014.066-.067.125-.13.23m1.237-.345.48-.022c-.193.333-.316.37-.48.022m-3.405-6.629.178.134c-.052.059-.126.174-.15.165-.083-.036-.149-.112-.222-.174zm-1.468.4c-.07-.1-.154-.17-.141-.214.016-.055.105-.098.172-.123.018-.006.102.078.097.107-.015.067-.066.125-.128.23m9.854 6.385c-.18.07-.26.128-.33.119-.058-.008-.119-.09-.152-.152-.01-.022.058-.124.083-.121.073.007.143.05.4.154m-11.6-6.752h.44q-.182.306-.436-.003zm14.506 6.652c-.21.118-.28.183-.35.189-.065.004-.147-.047-.191-.098-.018-.02.04-.155.073-.16.089-.01.183.022.468.069m-13.516-6.1c.12.21.192.28.18.328-.015.052-.104.086-.16.127-.042-.057-.11-.111-.115-.171-.005-.068.043-.14.095-.284m7.338-2.823c.056.105.104.165.119.232.005.027-.084.106-.104.098-.064-.025-.151-.074-.16-.126-.009-.047.073-.11.144-.204m-10.913 9.914c-.073-.1-.157-.17-.146-.215.014-.055.105-.101.17-.127.02-.007.107.076.1.106-.01.068-.062.128-.125.236m14.025-6.947c-.015.079-.006.2-.05.226-.068.037-.173.007-.262.005.021-.07.02-.169.066-.202.058-.042.154-.029.235-.04zm-6.566-.522c-.105.06-.164.11-.231.123-.027.006-.107-.08-.1-.103.023-.063.071-.153.123-.161.048-.008.112.072.208.141m-2.942 7.296c-.095.05-.164.117-.212.103-.052-.014-.084-.103-.125-.16.057-.04.116-.114.171-.112.048.002.093.09.166.168m.16-5.889c-.189.069-.262.11-.34.118-.045.005-.134-.048-.132-.07.004-.072.041-.142.068-.213zm2.592 5.653c.062.108.114.17.128.238.005.028-.084.11-.105.103-.066-.026-.155-.075-.168-.13-.008-.046.075-.113.145-.21m1.353-.001c.081.085.145.131.174.193.012.03-.048.132-.07.13-.072-.005-.144-.043-.215-.068zm-7.925-3.229c-.072-.1-.155-.168-.143-.211.014-.055.103-.1.17-.125.017-.007.1.076.095.106-.012.066-.064.125-.123.23M38.1 18.001c-.102.073-.172.159-.216.147-.055-.015-.102-.103-.13-.17-.007-.018.077-.105.109-.1.066.012.126.063.236.123m1.541.009c-.1.07-.173.154-.216.14-.057-.017-.1-.108-.125-.177-.005-.02.08-.104.11-.098.068.016.127.07.232.135m1.543-.012-.398.163c-.027-.07-.065-.14-.07-.212-.002-.022.09-.076.132-.072.076.009.151.051.336.121m-7.428-5.896c-.086.08-.132.144-.194.173-.027.013-.128-.049-.127-.07.006-.072.045-.141.07-.212zm9.976 6.118c-.048-.115-.079-.184-.107-.253.071-.026.139-.066.212-.072.021-.002.085.1.07.129-.028.063-.092.108-.175.197m-6.197-3.824c-.18.068-.25.11-.327.118-.043.005-.13-.047-.129-.069.004-.07.041-.139.065-.208zm-10.542 3.995c.066.166.109.236.12.31.005.04-.049.127-.07.126-.071-.005-.139-.041-.208-.066zm3.822-3.304c-.105.058-.165.107-.231.12-.029.005-.109-.083-.1-.103.025-.064.073-.151.126-.161.047-.01.11.073.205.144m-.886 3.426c.06.106.11.167.124.235.006.026-.083.107-.105.099-.064-.024-.153-.073-.162-.125-.009-.048.073-.113.143-.209m7.281-3.071c.067.17.111.242.122.319.005.042-.05.131-.071.13-.073-.006-.143-.043-.212-.068.029-.069.057-.138.16-.38m-3.149-4.029c.095-.051.166-.12.214-.107.052.012.084.104.124.161-.056.04-.117.114-.17.11-.052-.004-.096-.09-.168-.164m.518 7.288-.372.151c-.025-.068-.064-.135-.07-.206-.003-.02.086-.075.127-.07.075.01.144.054.315.125m-1.011-3.823c.059.104.109.164.121.23.006.028-.082.108-.101.1-.064-.025-.152-.073-.162-.125-.01-.047.073-.111.142-.206m3.952 3.846c-.17.067-.238.11-.311.12-.043.005-.13-.048-.129-.069.006-.07.043-.137.066-.206.068.028.136.055.374.155m1.268.029-.244.098c-.027-.067-.066-.134-.073-.203-.002-.02.098-.082.124-.07.063.029.105.092.192.175m1.366.162c-.073-.098-.157-.165-.144-.208.014-.055.1-.1.163-.127.018-.008.105.073.1.103-.01.066-.06.125-.12.232m-5.396-3.803c.083-.078.13-.141.19-.17.029-.013.128.048.126.07-.007.07-.044.14-.07.21zm3.149.165c-.072-.098-.155-.167-.143-.21.016-.054.102-.098.167-.124.018-.007.104.074.097.104-.011.066-.063.124-.121.23m.194-7.483c-.1.073-.17.157-.214.146-.055-.015-.102-.103-.128-.168-.007-.018.076-.105.107-.1.066.012.126.063.235.122m-4.532-.185c.06.106.11.167.124.235.005.027-.084.109-.103.1-.064-.024-.153-.073-.166-.127-.009-.046.073-.112.145-.208m7.282 7.668c-.071-.098-.155-.167-.144-.21.016-.055.103-.099.169-.125.016-.007.101.075.096.105-.013.066-.062.124-.121.23m-3.98-8.181c.17-.067.242-.11.316-.118.041-.005.13.048.129.07-.004.07-.041.139-.066.208zm-.924-.02c-.102.041-.202.089-.306.115-.011.002-.054-.124-.082-.19l.357-.04zm-1.33.01-.413.17c-.023-.071-.06-.141-.064-.213-.002-.022.087-.073.132-.069.076.007.15.046.345.112M24.569 17.83c.078.014.2.002.228.046.039.067.012.173.012.263-.07-.016-.164-.01-.201-.054-.048-.055-.048-.15-.068-.227zm6.207-1.28c-.071.02-.14.046-.212.057-.009 0-.053-.11-.039-.122.057-.047.128-.077.196-.114.016.051.03.102.055.178"/></svg>