<svg xmlns="http://www.w3.org/2000/svg" viewBox="0 0 220 140" fill="none">
	<g stroke-linecap="round" stroke-width="12">
		<path
			d="M92 22c0 19-8 30-25 30-12 0-21-8-21-19 0-9 6-17 16-17 14 0 22 12 34 25s24 24 40 24c14 0 25-9 25-23 0-12-8-22-18-22"
			stroke="#305CB3"
		/>
		<path
			d="M128 20c19 0 31 10 31 27 0 13-8 22-19 22-9 0-17-6-17-16 0-14 12-22 25-34s24-24 24-40c0-14-9-25-23-25"
			stroke="#2E8A4F"
			transform="translate(10 20)"
		/>
		<path
			d="M92 22c0 19-8 30-25 30-12 0-21-8-21-19 0-9 6-17 16-17 14 0 22 12 34 25s24 24 40 24c14 0 25-9 25-23 0-12-8-22-18-22"
			stroke="#BF313B"
			transform="rotate(72 110 70)"
		/>
		<path
			d="M92 22c0 19-8 30-25 30-12 0-21-8-21-19 0-9 6-17 16-17 14 0 22 12 34 25s24 24 40 24c14 0 25-9 25-23 0-12-8-22-18-22"
			stroke="#D7BA06"
			transform="rotate(144 110 70)"
		/>
		<path
			d="M92 22c0 19-8 30-25 30-12 0-21-8-21-19 0-9 6-17 16-17 14 0 22 12 34 25s24 24 40 24c14 0 25-9 25-23 0-12-8-22-18-22"
			stroke="#F06A1B"
			transform="rotate(216 110 70)"
		/>
		<path
			d="M92 22c0 19-8 30-25 30-12 0-21-8-21-19 0-9 6-17 16-17 14 0 22 12 34 25s24 24 40 24c14 0 25-9 25-23 0-12-8-22-18-22"
			stroke="#1E9DD6"
			transform="rotate(288 110 70)"
		/>
	</g>
</svg>
