<svg xmlns="http://www.w3.org/2000/svg" width="765.023" height="521.982" stroke="#fff" stroke-width="10.666" viewBox="0 0 765.023 521.982"><path fill="#61b82e" d="M382.513 5.333a255.66 255.66 0 0 0-212.274 113.178c20.21 1.382 40.354 6.403 60.315 13.972a200.86 200.86 0 0 1 306.925-1.121 200.9 200.9 0 0 1 47.872 130.149 200.9 200.9 0 0 1-15.704 77.855c13.465 4.605 25.736 7.194 36.344 7.194 6.164 0 12.156-.497 17.942-1.444a255.7 255.7 0 0 0 0-168.248 255.7 255.7 0 0 0-29.147-58.357A255.66 255.66 0 0 0 382.513 5.333z"/><path fill="#f5f22b" d="M159.032 175.425c-6.163 0-12.156.496-17.941 1.443a255.7 255.7 0 0 0 0 168.248 255.7 255.7 0 0 0 29.148 58.356 255.66 255.66 0 0 0 424.547 0c-18.968-1.297-37.877-5.8-56.633-12.606a200.86 200.86 0 0 1-308.259-1.117 200.9 200.9 0 0 1-46.264-128.238 200.9 200.9 0 0 1 15.572-77.543c-14.97-5.446-28.565-8.543-40.17-8.543z"/><path fill="#0094de" d="M159.032 118.124c-83.205 0-153.699 62.835-153.699 142.867s70.494 142.867 153.7 142.867q5.605-.002 11.206-.386a255.7 255.7 0 0 1-29.148-58.356c-45.766-7.492-78.457-43.173-78.457-84.125s32.691-76.63 78.457-84.123a111 111 0 0 1 17.941-1.443c11.605 0 25.2 3.097 40.17 8.543 38.96 14.172 87.24 44.25 134.049 77.023l49.26-35.56c-47.973-35.334-99.331-72.992-151.957-92.948-19.961-7.569-40.105-12.59-60.315-13.972a164 164 0 0 0-11.207-.387z"/><path fill="#d92624" d="M605.991 118.124q-5.606.002-11.205.387a255.7 255.7 0 0 1 29.147 58.357c45.765 7.493 78.457 43.171 78.457 84.123s-32.692 76.633-78.457 84.125a111 111 0 0 1-17.942 1.444c-10.608 0-22.88-2.59-36.344-7.194-39.598-13.542-89.524-44.52-137.876-78.375l-49.26 35.563c49.09 36.157 101.73 74.748 155.642 94.312 18.756 6.806 37.665 11.309 56.633 12.606q5.6.384 11.205.386c83.205 0 153.7-62.834 153.7-142.867s-70.495-142.867-153.7-142.867z"/><path d="m382.51 225.43-49.259 35.561c-46.959 32.878-95.4 63.044-134.426 77.16a200.9 200.9 0 0 0 31.069 51.598c52.856-19.889 104.444-57.714 152.617-93.195l49.26-35.563c48.196-33.744 97.955-64.632 137.492-78.242a200.9 200.9 0 0 0-31.784-51.387c-53.676 19.64-106.081 58.062-154.968 94.069z"/></svg>