<svg xmlns="http://www.w3.org/2000/svg" width="765.007" height="525.955" stroke="#fff" stroke-width="10.666"><path fill="#f5f22b" d="M141.257 347.374c-9.142-26.43-14.114-54.823-14.114-84.39h-.112v-.008h.112c0-30.192 5.18-59.16 14.693-86.064l.272-.048.272-.05.272-.046.272-.048.272-.045.27-.046.273-.045.272-.045.269-.042.27-.042.271-.042.272-.041.27-.04.269-.039.27-.037.27-.04.268-.035.27-.037.267-.035h.001l.27-.034.266-.032h.001l.268-.034.268-.032.27-.032.266-.029.267-.03.267-.029.268-.029.266-.027.267-.026.267-.026.266-.026.266-.022.266-.024.264-.021.266-.023.264-.02.265-.02.264-.018.264-.02.263-.015.262-.017.263-.015.264-.016.263-.013.262-.014.263-.013.263-.01.26-.01.26-.01.262-.01.262-.008.258-.007.26-.007.26-.005.26-.005.259-.004.26-.004.257-.001.26-.001h1.03v.003l.2.003c13.298.164 27.222 3.154 41.682 8.328h.001c-10.532 24.326-16.37 51.133-16.372 79.274h.113v.01h-.113c.001 27.811 5.704 54.318 16.004 78.416a200.8 200.8 0 0 0 30.72 49.995 203 203 0 0 0 12.037 13.153c36.303 36.304 86.365 58.763 141.572 58.763v-.112h.009v.112c55.204 0 105.262-22.459 141.565-58.76a203 203 0 0 0 11.976-13.082 345 345 0 0 0 26.85 8.948l.258.074a159.5 159.5 0 0 0 33.433 5.809 258 258 0 0 1-31.92 38.848c-46.557 46.556-110.96 75.357-182.162 75.358v.112h-.009v-.112c-71.207 0-135.612-28.802-182.169-75.36a258 258 0 0 1-32.717-40.049 256.5 256.5 0 0 1-28.527-57.725z"/><path fill="#61b82e" d="M628.175 178.827c9.088 26.36 14.026 54.67 14.026 84.144h.114v.01h-.112c0 29.583-4.976 57.99-14.13 84.432a94 94 0 0 1-23.18 1.903c-7.508-.312-15.48-1.601-23.865-4l-.256-.073a276 276 0 0 1-11.833-3.694c10.341-24.14 16.066-50.698 16.066-78.569h-.11v-.009h.112c-.001-27.453-5.558-53.636-15.608-77.485a200.7 200.7 0 0 0-30.513-50.206 203 203 0 0 0-12.64-13.874c-36.303-36.304-86.364-58.762-141.57-58.762v.112h-.01v-.112c-55.204 0-105.263 22.457-141.566 58.76a203 203 0 0 0-11.756 12.816l-.808-.328-.04-.016-.04-.016-.053-.023-.03-.012-.04-.016-.04-.016-.04-.016-.12-.05-.042-.015-.007-.003-.196-.08-.039-.016-.04-.016-.083-.034-.04-.016-.04-.016-.04-.017-.146-.059-.058-.022-.04-.016-.04-.016-.04-.016-.04-.016-.04-.016-.04-.016-.082-.034-.04-.016-.286-.114-.234-.094-.448-.178-.223-.088-.225-.09a261 261 0 0 0-13.376-4.885l-.043-.015h-.003l-.223-.074-.221-.074-.221-.072q-1.667-.552-3.334-1.073l-.221-.068q-2.224-.695-4.447-1.336l-.222-.064-.888-.253-.222-.063-.224-.063-.221-.061-.223-.063q-1.772-.493-3.541-.946l-.013-.005-.176-.046-.027-.007-.627-.16-.11-.026-.111-.03-.108-.026-.328-.082-.05-.013-.06-.013-.109-.027-.108-.027-.045-.013-.132-.03-.043-.011-.109-.027-.545-.133-.11-.027q-1.257-.304-2.514-.588l-.11-.025q-.876-.2-1.75-.387-1.582-.34-3.164-.65l-.055-.01-.053-.01-.056-.012-.054-.01-.056-.01-.054-.012-.056-.01-.084-.018-.127-.024q-.764-.146-1.53-.286l-.093-.018-.048-.009-.024-.004q-.776-.14-1.552-.274l-.407-.07-.104-.017-.586-.097-.112-.019-.049-.008-.419-.067-.59-.094-.124-.02-.494-.076-.056-.008-.745-.112-.25-.038-.075-.01-.547-.079-.227-.032-.026-.004-.64-.09-.059-.007-.177-.023-.084-.013-.604-.079-.088-.012-.628-.08-.08-.009-.792-.096-.068-.008-.039-.004-.625-.072-.278-.032-.174-.02-.766-.083-.129-.013-.812-.084-.084-.009-.227-.021-.666-.064-.898-.08h-.007l-.886-.074-.054-.005-.856-.066-.086-.008a258 258 0 0 1 31.317-37.948C249.06 34.247 313.462 5.447 384.666 5.445v-.112h.009v.112c71.206 0 135.61 28.803 182.169 75.36a258 258 0 0 1 32.873 40.28 256.5 256.5 0 0 1 28.456 57.74z"/><path fill="#0094de" d="M231.342 134.222c48.702 20.01 97.861 56.236 149.31 94.232l-47.969 35.748c-46.965-34.55-91.569-66.047-131.974-80.501-14.461-5.174-28.385-8.164-41.685-8.328l-.199-.003v-.001c-5.477-.05-11.174.48-16.988 1.542l-.842.156a102 102 0 0 0-17.906 5.183c-29.629 11.565-54.257 36.13-59.293 65.819a83.7 83.7 0 0 0 .168 29.04c3.01 16.466 10.964 32.082 23.23 44.486 12.327 12.467 29.06 21.633 49.575 25.113a112 112 0 0 0 4.487.667 256.5 256.5 0 0 0 28.527 57.724c-15.042 1.084-29.214.373-42.435-1.868-33.313-5.65-60.661-20.72-80.977-41.263-20.376-20.606-33.63-46.778-38.705-74.543-2.938-16.078-3.136-32.594-.392-48.776 8.58-50.59 47.963-91.436 94.955-109.781a159.3 159.3 0 0 1 28-8.099c9.448-1.805 19.219-2.596 29.156-2.596h.112c4.267.052 7.16.25 11.688.58 20.08 1.465 40.07 7.213 60.157 15.468z"/><path fill="#d92624" d="M429.16 263.809c45.302 32.138 92.159 61.718 139.78 77.74a275 275 0 0 0 11.832 3.694l.256.073c8.385 2.4 16.356 3.688 23.864 4a94 94 0 0 0 23.183-1.901c13.898-2.91 26.568-8.883 37.356-16.964 16.526-12.38 28.629-29.623 33.976-48.314 1.706-5.967 2.717-11.847 2.953-17.512a78.7 78.7 0 0 0-1.604-19.284c-3.67-17.655-13.267-34.011-27.4-46.204-11.995-10.35-27.33-17.694-45.183-20.308a256.5 256.5 0 0 0-28.457-57.741 167 167 0 0 1 20.417-.414c36.086 1.502 67.094 14.823 90.68 35.174 23.699 20.446 39.813 47.997 46.016 77.829a135.3 135.3 0 0 1 2.727 33.19 132.5 132.5 0 0 1-4.974 30.97c-8.72 30.49-28.253 58.46-54.834 78.37-26.565 19.9-60.187 31.84-97.099 30.304q-1.94-.081-3.888-.21v.002a159.3 159.3 0 0 1-33.433-5.808l-.257-.073a345 345 0 0 1-26.85-8.95c-55.437-20.968-107.55-55.757-157.331-91.837z"/><path d="M380.651 228.454c50.236-37.47 102.393-73.19 158.236-93.174a200.7 200.7 0 0 1 30.513 50.206c-47.564 14.583-94.418 45.059-140.24 78.323l-48.27 35.826c-50.31 37.284-99.236 72.967-149.829 91.761a200.8 200.8 0 0 1-30.72-49.994c42.245-12.97 87.063-42.832 132.342-77.2z"/></svg>