<svg xmlns="http://www.w3.org/2000/svg" width="1750.582" height="936.173"><circle cx="425.415" cy="294.074" r="294.074" fill="#fcef51"/><circle cx="111.974" cy="625.538" r="111.974" fill="#035afe"/><circle cx="454.005" cy="775.829" r="160.344" fill="#e30000"/><circle cx="284.26" cy="615.314" r="53.857" fill="none" stroke="#ebd06a" stroke-width="3"/><circle cx="288.013" cy="624.809" r="64.067" fill="none" stroke="#bd8c72" stroke-width="3"/><path fill="none" stroke="#000" stroke-width="3" d="m252.613 687.336 191.304-81.497-245.507-71.707Z"/><path d="M893.81 857.238c68.031 0 120.867-50.764 120.867-122.939s-52.836-122.938-120.866-122.938c-67.685 0-120.867 50.764-120.867 122.938s53.182 122.939 120.867 122.939m0-27.281c-50.763 0-88.75-36.951-88.75-95.658 0-59.052 37.987-95.657 88.75-95.657 50.765 0 88.751 36.605 88.751 95.657 0 58.707-37.986 95.658-88.75 95.658m162.307-214.107v238.97h31.425V676.284l79.772 178.538h22.102l79.426-178.192v178.19h31.425V615.85h-33.497l-88.405 197.53-88.405-197.53zm426.832 23.828v-25.9h-129.5v241.043h129.5v-25.9h-98.075v-82.88h87.715v-25.9h-87.715v-80.463zm35.914 94.621c0 72.175 52.836 122.594 120.176 122.594 52.146 0 93.586-25.9 111.543-72.175h-37.641c-13.123 28.663-38.678 44.893-73.902 44.893-50.418 0-88.06-36.605-88.06-95.312 0-59.052 37.642-95.657 88.06-95.657 35.224 0 60.779 16.23 73.902 45.239h37.64c-17.956-46.62-59.396-72.866-111.542-72.866-67.34 0-120.176 51.11-120.176 123.284" aria-label="OMEC"/></svg>