<svg xmlns="http://www.w3.org/2000/svg" width="106.812" height="103.867" stroke="#fff" viewBox="0 0 106.812 103.867"><defs><linearGradient id="f" x1="28.814" x2="48.966" y1="20.168" y2="36.667" href="#a"><stop offset="0" stop-color="#273895"/><stop offset=".5" stop-color="#09d"/><stop offset="1" stop-color="#273895"/></linearGradient><linearGradient id="g" x1="22.374" x2="44.603" y1="17.447" y2="35.612" href="#a"><stop offset="0" stop-color="#273895"/><stop offset=".5" stop-color="#09d"/><stop offset="1" stop-color="#273895"/></linearGradient><linearGradient id="d" x1="11.168" x2="38.553" y1="34.778" y2="89.638" href="#a"><stop offset="0" stop-color="#f15b28"/><stop offset=".25" stop-color="#f68b1e"/><stop offset=".5" stop-color="#f15b28"/><stop offset=".75" stop-color="#f68b1e"/><stop offset="1" stop-color="#f15b28"/></linearGradient><linearGradient id="e" x1="22.317" x2="23.092" y1="54.619" y2="90.992" href="#a"><stop offset="0" stop-color="#f15b28"/><stop offset=".5" stop-color="#f68b1e"/><stop offset="1" stop-color="#f15b28"/></linearGradient><linearGradient id="b" x1="30.353" x2="75.208" y1="70.373" y2="101.692" href="#a"><stop offset="0" stop-color="#d0c200"/><stop offset=".25" stop-color="#f8ec2f"/><stop offset=".5" stop-color="#d0c200"/><stop offset=".75" stop-color="#f8ec2f"/><stop offset="1" stop-color="#d0c200"/></linearGradient><linearGradient id="c" x1="43.652" x2="70.594" y1="69.587" y2="101.164" href="#a"><stop offset="0" stop-color="#d0c200"/><stop offset=".5" stop-color="#f8ec2f"/><stop offset="1" stop-color="#d0c200"/></linearGradient><linearGradient id="j" x1="77.522" x2="91.809" y1="94.12" y2="33.034" href="#a"><stop offset="0" stop-color="#70000a"/><stop offset=".25" stop-color="#bd1d2c"/><stop offset=".5" stop-color="#70000a"/><stop offset=".75" stop-color="#bd1d2c"/><stop offset="1" stop-color="#70000a"/></linearGradient><linearGradient id="k" x1="88.25" x2="99.796" y1="67.307" y2="41.405" href="#a"><stop offset="0" stop-color="#70000a"/><stop offset=".5" stop-color="#bd1d2c"/><stop offset="1" stop-color="#70000a"/></linearGradient><linearGradient id="h" x1="46.026" x2="98.349" y1="10.265" y2="47.528" href="#a"><stop offset="0" stop-color="#046939"/><stop offset=".25" stop-color="#079243"/><stop offset=".5" stop-color="#046939"/><stop offset=".75" stop-color="#079243"/><stop offset="1" stop-color="#046939"/></linearGradient><linearGradient id="i" x1="60.352" x2="75.426" y1="8.291" y2="33.014" href="#a"><stop offset="0" stop-color="#046939"/><stop offset=".5" stop-color="#079243"/><stop offset="1" stop-color="#046939"/></linearGradient><linearGradient id="a" gradientUnits="userSpaceOnUse"/></defs><path fill="url(#b)" d="M67.354 68.262q-1.325 0-2.515.153c-5.624.717-9.09 3.883-11.975 8.19-1.374 2.05-2.616 4.362-3.896 6.79l-1.067 2.07c-2.165 4.227-4.688 8.797-9.355 8.797-1.49 0-2.914-.284-4.192-.804-3.171-1.293-5.43-4.051-5.47-7.594v-.1c0-4.037 2.869-7.073 6.707-8.11a11.2 11.2 0 0 0-.551-3.874c-.669-2.058-1.963-3.386-3.592-4.287-5.914 2.23-9.822 7.194-11.072 12.55a16.4 16.4 0 0 0-.434 3.715c0 2.834.77 5.706 2.213 8.282 2.924 5.218 8.618 9.222 16.31 9.222 7.075 0 11.31-3.893 14.518-8.7 1.41-2.113 2.623-4.4 3.79-6.614l1.2-2.365c1.156-2.294 2.394-4.623 4.116-6.23 1.36-1.271 3.022-2.09 5.185-2.09 1.36 0 2.666.234 3.856.671 3.377 1.242 5.806 4.11 5.806 7.824q0 .56-.07 1.092c3.382 1.056 6.703-.238 8.912-2.855-.604-5.427-3.95-10.74-9.389-13.59-2.568-1.346-5.602-2.143-9.035-2.143z"/><path fill="url(#c)" d="M42.7 68.827q.512 1.085.923 2.346c1.06 3.264 1.24 6.397.754 9.256 1.491 1.608 2.679 3.564 3.524 5.134l1.255 2.483 3.827 6.613c3.515 5.17 7.786 8.707 14.37 8.707 6.818 0 12.067-3.144 15.208-7.492-2.896.577-5.864.42-8.559-.455a16.4 16.4 0 0 1-3.4-1.56 11.3 11.3 0 0 1-3.328.494c-3.638 0-6.626-3.97-9.301-8.672a92 92 0 0 1-1.201-2.188c-1.277-2.393-2.52-4.715-3.909-6.79-2.533-3.789-5.554-6.762-10.164-7.876Z"/><path fill="url(#d)" d="M43.721 71.142q-.41-1.26-.923-2.344c-2.42-5.128-6.501-7.446-11.49-8.858-2.373-.674-4.956-1.14-7.66-1.608l-2.3-.375c-4.688-.753-9.814-1.74-11.257-6.178-.46-1.417-.63-2.86-.53-4.236.25-3.415 2.174-6.416 5.532-7.549l.095-.03c3.84-1.248 7.613.542 9.785 3.872a11.2 11.2 0 0 0 3.515-1.721c1.75-1.272 2.613-2.913 2.967-4.741-3.949-4.935-9.877-7.118-15.357-6.652a16.4 16.4 0 0 0-3.668.735c-2.695.876-5.188 2.496-7.192 4.664-4.06 4.394-6.108 11.046-3.731 18.362 2.186 6.728 7.197 9.553 12.76 11.119 2.446.688 4.996 1.135 7.462 1.56.85.146 1.731.275 2.62.41 2.539.391 5.136.85 7.197 1.99 1.629.9 2.922 2.228 3.59 4.286.42 1.293.601 2.607.553 3.874-.137 3.596-2.114 6.792-5.647 7.94q-.532.173-1.06.27c.041 3.543 2.298 6.302 5.47 7.594 4.974-2.251 8.993-7.075 10.023-13.129.487-2.858.307-5.99-.754-9.255z"/><path fill="url(#e)" d="M35.565 47.87q-.873.822-1.946 1.602c-2.776 2.017-5.7 3.156-8.57 3.578-1.068 1.915-2.561 3.649-3.793 4.938l-1.974 1.96-5.107 5.684c-3.83 4.94-5.875 10.095-3.84 16.357 2.107 6.484 6.719 10.505 11.825 12.148-1.444-2.575-2.212-5.447-2.212-8.28a16.4 16.4 0 0 1 .433-3.716 11.3 11.3 0 0 1-1.499-3.012c-1.124-3.46 1.729-7.529 5.374-11.526a92 92 0 0 1 1.71-1.818c1.88-1.954 3.705-3.854 5.25-5.816 2.82-3.58 4.714-7.372 4.349-12.1z"/><path fill="url(#f)" d="M33.681 49.557q1.072-.78 1.945-1.602c4.129-3.886 5.072-8.485 4.874-13.665-.093-2.466-.447-5.067-.839-7.783l-.353-2.302c-.733-4.692-1.378-9.873 2.397-12.616a11.1 11.1 0 0 1 3.864-1.813c3.326-.818 6.774.085 8.89 2.928l.058.081c2.373 3.266 1.836 7.409-.66 10.503a11.2 11.2 0 0 0 2.724 2.81c1.75 1.272 3.578 1.586 5.425 1.358 3.474-5.28 3.718-11.594 1.581-16.661a16.4 16.4 0 0 0-1.832-3.261c-1.666-2.293-3.977-4.164-6.659-5.4C49.664-.368 42.704-.26 36.481 4.26c-5.724 4.16-6.862 9.798-6.632 15.572.101 2.539.464 5.102.822 7.579l.419 2.619c.413 2.535.78 5.147.332 7.46-.353 1.827-1.217 3.466-2.966 4.738a11.2 11.2 0 0 1-3.514 1.723c-3.462.98-7.113.088-9.296-2.917q-.33-.453-.586-.924c-3.356 1.133-5.283 4.132-5.531 7.548 3.678 4.035 9.508 6.367 15.583 5.476 2.87-.421 5.792-1.56 8.57-3.577z"/><path fill="url(#g)" d="M53.295 34.608q-1.052-.577-2.126-1.355c-2.776-2.018-4.763-4.447-6.05-7.045-2.152-.425-4.263-1.309-5.869-2.082l-2.475-1.271c-2.385-1.203-4.71-2.284-6.983-3.101-5.882-2.117-11.417-2.468-16.743 1.402-5.516 4.008-7.915 9.637-7.9 15 2.004-2.169 4.497-3.786 7.192-4.662a16.4 16.4 0 0 1 3.667-.737 11.3 11.3 0 0 1 2.402-2.355c2.944-2.139 7.694-.683 12.622 1.548a92 92 0 0 1 2.258 1.065c2.44 1.185 4.81 2.333 7.153 3.195 4.277 1.577 8.468 2.206 12.853.398z"/><path fill="url(#h)" d="M51.108 33.338q1.072.779 2.125 1.354c4.971 2.726 9.636 2.202 14.502.413 2.316-.85 4.68-1.991 7.143-3.203l2.08-1.048c4.236-2.147 8.963-4.361 12.739-1.618a11.1 11.1 0 0 1 2.919 3.115c1.805 2.91 2.012 6.469-.039 9.358l-.058.081c-2.373 3.266-6.479 4.036-10.193 2.618a11.2 11.2 0 0 0-1.832 3.46c-.668 2.057-.402 3.892.386 5.579 6.096 1.672 12.175-.047 16.335-3.645a16.4 16.4 0 0 0 2.534-2.75c1.666-2.294 2.731-5.07 3.078-8.002.702-5.94-1.552-12.526-7.774-17.047-5.724-4.159-11.439-3.499-16.86-1.495-2.382.88-4.708 2.018-6.953 3.123-.773.381-1.562.796-2.361 1.208-2.284 1.176-4.654 2.333-6.992 2.62-1.847.23-3.673-.085-5.423-1.356-1.1-.8-2.02-1.757-2.725-2.81-2.002-2.99-2.282-6.737-.099-9.742q.33-.453.699-.842C52.223 9.866 48.776 8.96 45.45 9.78c-2.702 4.746-3.118 11.01-.392 16.513 1.286 2.599 3.272 5.027 6.05 7.045z"/><path fill="url(#i)" d="M71.386 47.372q.223-1.179.632-2.44c1.061-3.264 2.757-5.905 4.83-7.932-.26-2.177-.072-4.458.167-6.225l.445-2.746.79-7.6c.196-6.249-1.18-11.62-6.507-15.49C66.227.93 60.133.389 55.036 2.06c2.682 1.235 4.99 3.107 6.656 5.399a16.4 16.4 0 0 1 1.834 3.26 11.3 11.3 0 0 1 2.983 1.557c2.943 2.138 3.027 7.106 2.427 12.482a92 92 0 0 1-.314 2.477c-.374 2.686-.733 5.295-.829 7.79-.178 4.555.519 8.736 3.594 12.346z"/><path fill="url(#j)" d="M71.917 44.898q-.41 1.26-.632 2.44c-1.056 5.57.884 9.844 4.089 13.919 1.525 1.94 3.34 3.836 5.254 5.803l1.639 1.655c3.35 3.365 6.917 7.177 5.475 11.615a11.1 11.1 0 0 1-2.06 3.739c-2.21 2.616-5.53 3.912-8.912 2.855l-.096-.03c-3.839-1.248-5.84-4.915-5.64-8.885a11.2 11.2 0 0 0-3.855-.673c-2.164 0-3.827.82-5.187 2.091.293 6.314 3.807 11.564 8.514 14.408a16.4 16.4 0 0 0 3.4 1.561c2.695.876 5.664 1.031 8.56.455 5.866-1.169 11.434-5.347 13.81-12.662 2.187-6.729-.207-11.96-3.787-16.496-1.574-1.994-3.374-3.855-5.12-5.649-.601-.617-1.239-1.24-1.878-1.872-1.824-1.808-3.657-3.705-4.653-5.84-.788-1.686-1.054-3.52-.385-5.576a11.2 11.2 0 0 1 1.83-3.46c2.224-2.828 5.702-4.252 9.235-3.104q.532.173 1.017.404c2.049-2.89 1.845-6.449.038-9.358-5.348-1.103-11.435.437-15.826 4.73-2.074 2.026-3.77 4.665-4.83 7.93z"/><path fill="url(#k)" d="M64.836 68.52q1.19-.152 2.516-.153c3.432 0 6.467.798 9.036 2.143 1.99-.92 4.218-1.446 5.972-1.765l2.75-.426 7.471-1.596c6.003-1.746 10.687-4.715 12.721-10.976 2.107-6.485.74-12.448-2.425-16.78-.346 2.933-1.413 5.708-3.078 8a16.4 16.4 0 0 1-2.534 2.752 11.3 11.3 0 0 1-.559 3.318c-1.124 3.46-5.823 5.075-11.122 6.166a92 92 0 0 1-2.452.466c-2.67.475-5.263.94-7.665 1.62-4.386 1.237-8.148 3.192-10.632 7.232z"/></svg>