<svg xmlns="http://www.w3.org/2000/svg" width="267.03" height="259.666" stroke="#fff" viewBox="0 0 267.03 259.666"><defs><linearGradient id="f" x1="72.037" x2="122.417" y1="50.42" y2="91.668" href="#a"><stop offset="0" stop-color="#273895"/><stop offset=".5" stop-color="#09d"/><stop offset="1" stop-color="#273895"/></linearGradient><linearGradient id="g" x1="55.937" x2="111.51" y1="43.618" y2="89.03" href="#a"><stop offset="0" stop-color="#273895"/><stop offset=".5" stop-color="#09d"/><stop offset="1" stop-color="#273895"/></linearGradient><linearGradient id="d" x1="27.922" x2="96.384" y1="86.945" y2="224.095" href="#a"><stop offset="0" stop-color="#f15b28"/><stop offset=".25" stop-color="#f68b1e"/><stop offset=".5" stop-color="#f15b28"/><stop offset=".75" stop-color="#f68b1e"/><stop offset="1" stop-color="#f15b28"/></linearGradient><linearGradient id="e" x1="55.795" x2="57.732" y1="136.548" y2="227.48" href="#a"><stop offset="0" stop-color="#f15b28"/><stop offset=".5" stop-color="#f68b1e"/><stop offset="1" stop-color="#f15b28"/></linearGradient><linearGradient id="b" x1="75.885" x2="188.022" y1="175.933" y2="254.23" href="#a"><stop offset="0" stop-color="#d0c200"/><stop offset=".25" stop-color="#f8ec2f"/><stop offset=".5" stop-color="#d0c200"/><stop offset=".75" stop-color="#f8ec2f"/><stop offset="1" stop-color="#d0c200"/></linearGradient><linearGradient id="c" x1="109.132" x2="176.487" y1="173.968" y2="252.91" href="#a"><stop offset="0" stop-color="#d0c200"/><stop offset=".5" stop-color="#f8ec2f"/><stop offset="1" stop-color="#d0c200"/></linearGradient><linearGradient id="j" x1="193.807" x2="229.525" y1="235.3" y2="82.585" href="#a"><stop offset="0" stop-color="#70000a"/><stop offset=".25" stop-color="#bd1d2c"/><stop offset=".5" stop-color="#70000a"/><stop offset=".75" stop-color="#bd1d2c"/><stop offset="1" stop-color="#70000a"/></linearGradient><linearGradient id="k" x1="220.627" x2="249.492" y1="168.268" y2="103.513" href="#a"><stop offset="0" stop-color="#70000a"/><stop offset=".5" stop-color="#bd1d2c"/><stop offset="1" stop-color="#70000a"/></linearGradient><linearGradient id="h" x1="115.067" x2="245.875" y1="25.663" y2="118.82" href="#a"><stop offset="0" stop-color="#046939"/><stop offset=".25" stop-color="#079243"/><stop offset=".5" stop-color="#046939"/><stop offset=".75" stop-color="#079243"/><stop offset="1" stop-color="#046939"/></linearGradient><linearGradient id="i" x1="150.882" x2="188.567" y1="20.728" y2="82.535" href="#a"><stop offset="0" stop-color="#046939"/><stop offset=".5" stop-color="#079243"/><stop offset="1" stop-color="#046939"/></linearGradient><linearGradient id="a" gradientUnits="userSpaceOnUse"/></defs><g stroke-width="2.5"><path fill="url(#b)" d="M168.387 170.656q-3.312 0-6.287.382c-14.06 1.793-22.725 9.708-29.938 20.475-3.435 5.125-6.54 10.905-9.74 16.975l-2.667 5.175c-5.413 10.568-11.72 21.993-23.388 21.993-3.725 0-7.285-.71-10.48-2.01-7.927-3.233-13.575-10.128-13.675-18.985v-.25c0-10.093 7.173-17.683 16.768-20.275a28 28 0 0 0-1.378-9.685c-1.672-5.145-4.907-8.465-8.98-10.718-14.785 5.575-24.555 17.985-27.68 31.375a41 41 0 0 0-1.085 9.288c0 7.085 1.925 14.265 5.533 20.705 7.31 13.045 21.545 23.055 40.775 23.055 17.687 0 28.275-9.733 36.295-21.75 3.525-5.283 6.557-11 9.475-16.535l3-5.913c2.89-5.735 5.985-11.557 10.29-15.575 3.4-3.177 7.555-5.225 12.962-5.225 3.4 0 6.665.585 9.64 1.678 8.443 3.105 14.516 10.275 14.516 19.56q0 1.4-.175 2.73c8.455 2.64 16.757-.595 22.28-7.138-1.51-13.567-9.875-26.85-23.473-33.975-6.42-3.365-14.005-5.357-22.588-5.357z"/><path fill="url(#c)" d="M106.752 172.068q1.28 2.713 2.308 5.865c2.65 8.16 3.1 15.993 1.885 23.14 3.727 4.02 6.697 8.91 8.81 12.835l3.137 6.208 9.568 16.532c8.787 12.925 19.465 21.768 35.925 21.768 17.045 0 30.168-7.86 38.02-18.73-7.24 1.442-14.66 1.05-21.397-1.138a41 41 0 0 1-8.5-3.9 28.3 28.3 0 0 1-8.32 1.235c-9.096 0-16.566-9.925-23.253-21.68a230 230 0 0 1-3.003-5.47c-3.192-5.982-6.3-11.787-9.772-16.975-6.333-9.472-13.885-16.905-25.41-19.69z"/><path fill="url(#d)" d="M109.305 177.856q-1.025-3.15-2.308-5.86c-6.05-12.82-16.252-18.615-28.725-22.145-5.932-1.685-12.39-2.85-19.15-4.02l-5.75-.938c-11.72-1.882-24.535-4.35-28.142-15.445-1.15-3.542-1.575-7.15-1.325-10.59.625-8.537 5.435-16.04 13.83-18.872l.237-.075c9.6-3.12 19.033 1.355 24.463 9.68a28 28 0 0 0 8.787-4.303c4.375-3.18 6.533-7.282 7.418-11.852-9.873-12.338-24.693-17.796-38.393-16.63a41 41 0 0 0-9.17 1.837c-6.737 2.19-12.97 6.24-17.98 11.66-10.15 10.985-15.27 27.615-9.327 45.905 5.465 16.82 17.992 23.883 31.9 27.798 6.115 1.72 12.49 2.837 18.655 3.9 2.125.365 4.327.687 6.55 1.025 6.347.977 12.84 2.125 17.992 4.975 4.073 2.25 7.305 5.57 8.975 10.715 1.05 3.232 1.503 6.517 1.383 9.685-.343 8.99-5.285 16.98-14.118 19.85q-1.33.432-2.65.675c.103 8.857 5.745 15.755 13.675 18.985 12.435-5.628 22.483-17.688 25.058-32.823 1.217-7.145.767-14.975-1.885-23.137z"/><path fill="url(#e)" d="M88.915 119.676q-2.183 2.055-4.865 4.005c-6.94 5.042-14.25 7.89-21.425 8.945-2.67 4.787-6.403 9.122-9.483 12.345l-4.935 4.9-12.767 14.21c-9.575 12.35-14.688 25.237-9.6 40.892 5.267 16.21 16.797 26.263 29.562 30.37-3.61-6.437-5.53-13.617-5.53-20.7a41 41 0 0 1 1.083-9.29 28.3 28.3 0 0 1-3.748-7.53c-2.81-8.65 4.323-18.822 13.435-28.815a230 230 0 0 1 4.275-4.545c4.7-4.885 9.263-9.635 13.125-14.54 7.05-8.95 11.785-18.43 10.873-30.25z"/><path fill="url(#f)" d="M84.205 123.893q2.68-1.95 4.862-4.005c10.323-9.715 12.68-21.212 12.185-34.162-.232-6.166-1.117-12.668-2.097-19.458l-.883-5.755c-1.832-11.73-3.445-24.683 5.993-31.54a27.8 27.8 0 0 1 9.66-4.533c8.315-2.045 16.935.213 22.225 7.32l.145.203c5.932 8.165 4.59 18.522-1.65 26.257a28 28 0 0 0 6.81 7.025c4.375 3.18 8.945 3.965 13.562 3.395 8.685-13.2 9.295-28.985 3.953-41.652a41 41 0 0 0-4.58-8.153c-4.165-5.732-9.943-10.41-16.648-13.5-13.58-6.255-30.98-5.985-46.537 5.315-14.31 10.4-17.155 24.495-16.58 38.93.252 6.348 1.16 12.755 2.055 18.948l1.047 6.547c1.033 6.338 1.95 12.868.83 18.65-.882 4.568-3.042 8.666-7.415 11.846a28 28 0 0 1-8.785 4.307c-8.655 2.45-17.782.22-23.24-7.292q-.825-1.133-1.465-2.31c-8.39 2.832-13.207 10.33-13.827 18.87 9.195 10.087 23.77 15.917 38.957 13.69 7.175-1.053 14.48-3.9 21.425-8.943z"/><path fill="url(#g)" d="M133.24 86.52q-2.63-1.442-5.315-3.387c-6.94-5.045-11.908-11.118-15.125-17.613-5.38-1.062-10.658-3.272-14.673-5.205l-6.187-3.177c-5.963-3.008-11.775-5.71-17.458-7.753-14.705-5.292-28.542-6.17-41.857 3.505-13.79 10.02-19.788 24.093-19.75 37.5 5.01-5.422 11.242-9.465 17.98-11.655a41 41 0 0 1 9.167-1.842 28.3 28.3 0 0 1 6.005-5.888c7.36-5.347 19.235-1.707 31.555 3.87a230 230 0 0 1 5.645 2.663c6.1 2.962 12.025 5.832 17.883 7.988 10.692 3.942 21.17 5.515 32.132.995z"/><path fill="url(#h)" d="M127.772 83.345q2.68 1.948 5.313 3.386c12.427 6.815 24.09 5.505 36.255 1.032 5.79-2.125 11.7-4.978 17.858-8.008l5.2-2.62c10.59-5.367 22.407-10.902 31.847-4.045a27.8 27.8 0 0 1 7.298 7.788c4.512 7.275 5.03 16.173-.098 23.395l-.145.203c-5.932 8.165-16.197 10.09-25.482 6.545a28 28 0 0 0-4.58 8.65c-1.67 5.142-1.005 9.73.965 13.947 15.24 4.18 30.437-.117 40.837-9.112a41 41 0 0 0 6.335-6.875c4.165-5.735 6.828-12.675 7.695-20.005 1.755-14.85-3.88-31.316-19.435-42.618-14.31-10.398-28.597-8.748-42.15-3.738-5.955 2.2-11.77 5.045-17.382 7.808-1.933.952-3.906 1.99-5.903 3.02-5.71 2.94-11.635 5.832-17.48 6.55-4.618.575-9.183-.213-13.558-3.39-2.75-2-5.05-4.393-6.812-7.025-5.005-7.475-5.705-16.843-.248-24.355q.825-1.133 1.748-2.105c-5.29-7.108-13.908-9.373-22.223-7.323-6.755 11.865-7.795 27.525-.98 41.283 3.215 6.497 8.18 12.567 15.125 17.612z"/><path fill="url(#i)" d="M178.468 118.43q.557-2.947 1.58-6.1c2.652-8.16 6.892-14.762 12.075-19.83-.65-5.442-.18-11.145.417-15.562l1.113-6.865 1.975-19c.49-15.623-2.95-29.05-16.268-38.725C165.57 2.325 150.335.973 137.592 5.15c6.705 3.088 12.475 7.768 16.64 13.498a41 41 0 0 1 4.585 8.15 28.3 28.3 0 0 1 7.458 3.892c7.357 5.345 7.567 17.765 6.067 31.205a230 230 0 0 1-.785 6.193c-.935 6.715-1.832 13.237-2.072 19.475-.445 11.388 1.297 21.84 8.985 30.865z"/><path fill="url(#j)" d="M179.795 112.246q-1.025 3.15-1.58 6.1c-2.64 13.925 2.21 24.61 10.223 34.797 3.812 4.85 8.35 9.59 13.135 14.508l4.097 4.137c8.375 8.413 17.293 17.943 13.688 29.038a27.8 27.8 0 0 1-5.15 9.347c-5.525 6.54-13.825 9.78-22.28 7.138l-.24-.075c-9.598-3.12-14.6-12.288-14.1-22.213a28 28 0 0 0-9.638-1.682c-5.41 0-9.568 2.05-12.968 5.227.733 15.785 9.518 28.91 21.286 36.02a41 41 0 0 0 8.5 3.903c6.737 2.19 14.16 2.577 21.4 1.137 14.665-2.922 28.585-13.367 34.525-31.655 5.467-16.822-.518-29.9-9.468-41.24-3.935-4.985-8.435-9.637-12.8-14.122-1.502-1.543-3.097-3.1-4.695-4.68-4.56-4.52-9.142-9.263-11.632-14.6-1.97-4.215-2.635-8.8-.963-13.94a28 28 0 0 1 4.575-8.65c5.56-7.07 14.255-10.63 23.088-7.76q1.33.432 2.542 1.01c5.123-7.225 4.613-16.123.095-23.396-13.37-2.757-28.587 1.093-39.565 11.826-5.185 5.065-9.425 11.662-12.075 19.825z"/><path fill="url(#k)" d="M162.092 171.3q2.975-.38 6.29-.382c8.58 0 16.168 1.995 22.59 5.358 4.976-2.3 10.546-3.615 14.93-4.413l6.876-1.065 18.677-3.99c15.008-4.365 26.718-11.787 31.803-27.44 5.267-16.212 1.85-31.12-6.063-41.95-.865 7.333-3.532 14.27-7.695 20a41 41 0 0 1-6.335 6.88 28.3 28.3 0 0 1-1.397 8.295c-2.81 8.65-14.558 12.688-27.805 15.415a230 230 0 0 1-6.13 1.165c-6.675 1.188-13.158 2.35-19.163 4.05-10.965 3.093-20.37 7.98-26.58 18.08z"/></g></svg>