<svg xmlns="http://www.w3.org/2000/svg" width="265.402" height="258.324" stroke="#fff" viewBox="0 0 265.402 258.324"><defs><linearGradient id="a" gradientUnits="userSpaceOnUse"/><linearGradient id="b" x1="63.482" x2="170.608" y1="190.363" y2="265.768" href="#a"><stop offset="0" stop-color="#d3c400"/><stop offset=".221" stop-color="#f8ec37"/><stop offset=".505" stop-color="#d4c700"/><stop offset=".742" stop-color="#f9eb31"/><stop offset="1" stop-color="#cabe00"/></linearGradient><linearGradient id="c" x1="110.171" x2="168.362" y1="176.718" y2="256.538" href="#a"><stop offset="0" stop-color="#d2c300"/><stop offset=".529" stop-color="#f8ec30"/><stop offset="1" stop-color="#d1c300"/></linearGradient><linearGradient id="d" x1="202.917" x2="246.443" y1="241.165" y2="51.154" href="#a"><stop offset="0" stop-color="#6f0000"/><stop offset=".229" stop-color="#c5173a"/><stop offset=".484" stop-color="#7c0014"/><stop offset=".599" stop-color="#b42825"/><stop offset="1" stop-color="#9f002a"/></linearGradient><linearGradient id="e" x1="218.253" x2="235.568" y1="176.072" y2="83.551" href="#a"><stop offset="0" stop-color="#720213"/><stop offset=".414" stop-color="#bc1f2d"/><stop offset="1" stop-color="#9a0c1d"/></linearGradient><linearGradient id="f" x1="152.805" x2="240.566" y1="-.62" y2="109.556" href="#a"><stop offset="0" stop-color="#006a34"/><stop offset=".243" stop-color="#009047"/><stop offset=".504" stop-color="#056c38"/><stop offset=".768" stop-color="#009144"/><stop offset="1" stop-color="#046d3a"/></linearGradient><linearGradient id="g" x1="146.052" x2="199.609" y1="6.597" y2="68.353" href="#a"><stop offset="0" stop-color="#0f6a3b"/><stop offset=".592" stop-color="#009244"/><stop offset="1" stop-color="#00733b"/></linearGradient><linearGradient id="h" x1="73.223" x2="110.576" y1="49.337" y2="77.992" href="#a"><stop offset="0" stop-color="#00499c"/><stop offset=".602" stop-color="#0099dc"/><stop offset="1" stop-color="#004199"/></linearGradient><linearGradient id="i" x1="62.873" x2="128.649" y1="23.233" y2="70.242" href="#a"><stop offset="0" stop-color="#0c479a"/><stop offset=".497" stop-color="#09d"/><stop offset="1" stop-color="#003e95"/></linearGradient><linearGradient id="j" x1="58.213" x2="78.12" y1="79.175" y2="230.248" href="#a"><stop offset="0" stop-color="#f16228"/><stop offset=".251" stop-color="#f7931f"/><stop offset=".477" stop-color="#f05f29"/><stop offset=".732" stop-color="#f6901e"/><stop offset="1" stop-color="#f15b28"/></linearGradient><linearGradient id="k" x1="68.071" x2="85.631" y1="118.238" y2="226.124" href="#a"><stop offset="0" stop-color="#f0542b"/><stop offset=".515" stop-color="#f6921d"/><stop offset="1" stop-color="#f1592b"/></linearGradient></defs><g stroke-width="2.5"><path fill="url(#b)" d="M167.816 169.89c-15.396 0-29.38 4.038-46.057 38.263-9.246 18.975-15.41 26.253-25.337 26.253-16.445 0-24.25-11.765-24.25-21.116 0-9.396 6.582-17.418 16.637-20.135.113-4.212-.757-15.234-10.8-20.033-19.402 7.208-28.125 24.903-28.125 40.168 0 13.597 11.288 43.4 46.206 43.4 23.221 0 33.28-14.879 45.963-38.55 5.717-10.67 11.099-25.967 25.432-25.967 17.085 0 25.296 12.542 24.078 23.714 7.898 2.093 16.45-.688 22.116-7.646-2.546-20.07-19.876-38.352-45.863-38.352z"/><path fill="url(#c)" d="M106.162 170.838c2.72 5.908 6.246 16.507 4.468 28.64 4.704 5.594 8.262 12.127 11.577 18.602 16.51 32.24 29.796 38.611 45.61 38.611 15.37 0 29.137-6.8 38.074-19.154-13.046 2.704-23.019-.029-30.039-4.315-.21.065-3.864 1.184-8.367 1.184-9.118 0-14.77-6.916-25.36-26.243-12.455-22.733-21.512-34.054-35.961-37.325z"/><path fill="url(#d)" d="M179.175 111.31c-4.756 14.641-5.237 29.19 22.16 55.627 15.189 14.657 20.205 22.768 17.138 32.21-5.082 15.638-18.683 19.426-27.577 16.536-8.935-2.903-14.53-11.641-14.007-22.044-3.972-1.409-14.723-3.988-22.391 4.08.86 20.681 14.993 34.445 29.511 39.16 12.932 4.203 44.763 2.678 55.553-30.53 7.177-22.086-3.866-36.25-22.458-55.627-8.382-8.735-21.267-18.58-16.839-32.212 5.28-16.248 19.746-20.182 29.995-15.571 4.43-6.863 4.428-15.858-.437-23.395-19.874-3.782-42.617 7.05-50.648 31.765z"/><path fill="url(#e)" d="M161.026 170.238c6.46-.76 17.629-.839 28.619 4.602 6.773-2.744 14.086-4.11 21.267-5.262 35.765-5.74 45.93-16.406 50.817-31.445 4.75-14.62 2.537-29.814-6.451-42.13-1.46 13.243-7.14 21.883-13.386 27.234-.002.223-.067 4.041-1.46 8.324-2.818 8.672-11.142 11.91-32.794 16.01-25.469 4.82-39.036 9.936-46.612 22.667z"/><path fill="url(#f)" d="M126.973 82.404c12.455 9.048 26.143 14.002 59.753-3.884 18.632-9.917 27.897-12.182 35.928-6.346 13.305 9.665 12.703 23.771 7.206 31.336-5.523 7.6-15.563 10.222-25.294 6.51-2.567 3.34-8.343 12.77-3.038 22.556 19.934 5.573 37.39-3.616 46.364-15.965 7.992-11.001 16.379-41.746-11.871-62.27-18.788-13.65-35.671-7.525-59.845 4.17-10.896 5.273-24.241 14.484-35.837 6.06-13.82-10.042-13.094-25.015-5.542-33.338-5.157-6.335-13.711-9.113-22.385-6.814-9.738 17.732-6.463 42.71 14.56 57.985z"/><path fill="url(#g)" d="M177.41 117.876c1.272-6.38 4.649-17.025 13.22-25.796-.519-7.292.443-14.668 1.566-21.854 5.593-35.788-1.409-48.752-14.203-58.046-12.435-9.035-27.57-11.626-42.06-6.883 12.144 5.48 18.605 13.552 21.764 21.147.21.07 3.824 1.312 7.465 3.959 7.376 5.359 7.885 14.277 5.091 36.137-3.284 25.713-2.611 40.196 7.157 51.335z"/><path fill="url(#h)" d="M83.351 123.119c12.455-9.05 21.396-20.537 14.77-58.028-3.673-20.787-2.964-30.296 5.066-36.131 13.304-9.666 26.534-4.735 32.03 2.83 5.523 7.602 4.914 17.96-1.623 26.068 2.384 3.473 9.565 11.88 20.511 9.86 11.462-17.236 8.117-36.68-.856-49.029-7.992-11.002-34.642-28.477-62.89-7.953-18.788 13.65-18.18 31.6-14.527 58.203 1.647 11.993 6.284 27.533-5.312 35.958-13.82 10.042-27.836 4.722-33.418-5.033-7.618 2.948-12.902 10.226-13.399 19.185 13.858 14.74 38.623 19.344 59.648 4.07z"/><path fill="url(#i)" d="M132.671 86.113C127 82.93 117.916 76.43 112.223 65.568c-7.094-1.76-13.812-4.955-20.299-8.243C59.616 40.946 45.122 43.6 32.33 52.895 19.894 61.93 12.753 75.525 12.784 90.77c8.966-9.856 18.64-13.507 26.839-14.165.134-.179 2.43-3.229 6.072-5.876 7.377-5.36 16.016-3.087 35.944 6.324 27.833 13.146 37.413 14.91 51.032 9.06z"/><path fill="url(#j)" d="M108.594 177.187c-4.759-14.64-12.92-26.694-50.624-31.978-20.904-2.93-29.73-6.544-32.798-15.983-5.082-15.64 3.696-26.698 12.59-29.588 8.935-2.904 18.598.877 24.29 9.599 4.04-1.192 14.255-5.427 15.715-16.46C64.915 76.55 45.392 73.722 30.872 78.438c-12.93 4.203-37.786 24.147-26.996 57.357 7.177 22.086 24.435 27.055 50.866 31.801 11.915 2.141 28.126 2.533 32.555 16.164 5.28 16.247-4.11 27.934-15.112 30.227.449 8.158 5.737 15.433 14.107 18.671 18.3-8.623 30.33-30.754 22.302-55.47z"/><path fill="url(#k)" d="M88.639 118.846c-4.779 4.412-13.77 11.04-25.858 13.1-3.866 6.2-8.98 11.603-14.112 16.757-25.562 25.667-27.516 40.27-22.63 55.308 4.751 14.619 15.472 25.61 29.984 30.292-6.604-11.572-7.087-21.9-5.179-29.901-.129-.182-2.322-3.31-3.712-7.591-2.82-8.673 2.014-16.185 17.123-32.229 17.77-18.872 25.738-30.982 24.384-45.736z"/></g></svg>