<svg xmlns="http://www.w3.org/2000/svg" width="352.191" height="214.055" viewBox="0 0 352.191 214.055"><defs><marker id="a" markerHeight="2" markerUnits="userSpaceOnUse" markerWidth="1.4" orient="auto-start-reverse" overflow="visible" preserveAspectRatio="none" viewBox="0 0 1 1"><path fill="context-stroke" d="M-1.4-2.8 6.3 0l-7.7 2.8C0 1.169 0-1.162-1.4-2.8"/></marker></defs><g stroke="#f60711" stroke-width="1.2" marker-end="url(#a)" marker-start="url(#a)"><path d="M8.82 108.673h334.551"/><path d="M178.134 8.82v196.415"/></g><g fill="none"><path stroke="#007f7c" stroke-width="15" d="M178.69 108.734a70.104 72.17 0 0 1 70.104-72.17 70.104 72.17 0 0 1 70.104 72.17m-281.528 0a70.104 72.17 0 0 1 70.104-72.17 70.104 72.17 0 0 1 70.104 72.17"/><path stroke="#05007e" stroke-dasharray="10,9.1" stroke-dashoffset="10" stroke-width="10" d="M175.834 108.596a69.731 76.635 0 0 1-34.866 66.368 69.731 76.635 0 0 1-69.73 0 69.731 76.635 0 0 1-34.866-66.368"/></g><path fill="#7d1c8d" d="M205.399 131.995c-7.246 0-12.168 5.339-12.168 13.243 0 7.938 4.888 13.242 12.202 13.242 3.086 0 5.79-.936 7.835-2.669 2.739-2.323 4.368-6.24 4.368-10.365 0-8.147-4.819-13.451-12.237-13.451m0 2.843c5.477 0 9.013 4.125 9.013 10.538 0 6.102-3.64 10.262-8.979 10.262-5.408 0-8.978-4.16-8.978-10.4s3.57-10.4 8.944-10.4m18.554-2.427h-2.912v25.272h2.912zm7.427 7.107h-2.877v18.165h2.877zm0-7.107h-2.912v3.64h2.912zm4.723 7.107v18.165h2.912v-11.405c0-2.635 1.907-4.75 4.264-4.75 2.15 0 3.363 1.318 3.363 3.64v12.515h2.912v-11.405c0-2.635 1.906-4.75 4.264-4.75 2.114 0 3.362 1.352 3.362 3.64v12.515h2.912v-13.624c0-3.259-1.872-5.061-5.27-5.061-2.426 0-3.882.728-5.58 2.773-1.075-1.941-2.531-2.773-4.888-2.773-2.427 0-4.056.901-5.582 3.085v-2.565zm28.157 25.722h2.912v-9.464c1.526 1.872 3.224 2.704 5.582 2.704 4.714 0 7.765-3.778 7.765-9.568 0-6.101-2.981-9.914-7.8-9.914-2.461 0-4.437 1.109-5.79 3.258v-2.738h-2.669zm7.974-23.538c3.189 0 5.269 2.808 5.269 7.141 0 4.125-2.115 6.933-5.27 6.933-3.085 0-5.06-2.773-5.06-7.037s1.975-7.037 5.06-7.037m15.365-2.184h-2.877v18.165h2.877zm-.555-7.488-3.328 5.13h2.08l5.166-5.13zm22.403 23.954c-.312.07-.45.07-.624.07-1.005 0-1.56-.52-1.56-1.422v-10.677c0-3.224-2.357-4.957-6.83-4.957-2.669 0-4.783.762-6.031 2.114-.832.936-1.18 1.976-1.248 3.779h2.912c.242-2.219 1.56-3.224 4.264-3.224 2.634 0 4.056.97 4.056 2.704v.763c-.035 1.248-.66 1.698-3.016 2.01-4.091.52-4.715.659-5.824 1.11-2.115.901-3.19 2.496-3.19 4.853 0 3.293 2.288 5.373 5.963 5.373 2.288 0 4.125-.797 6.17-2.669.209 1.872 1.11 2.67 2.982 2.67.624 0 1.005-.07 1.976-.313zm-5.061-4.021c0 .97-.278 1.56-1.144 2.357-1.18 1.075-2.6 1.63-4.3 1.63-2.252 0-3.57-1.075-3.57-2.912 0-1.907 1.248-2.878 4.368-3.328 3.086-.416 3.675-.555 4.646-1.006zm22.749-19.552h-2.877v9.395c-1.214-1.838-3.155-2.808-5.582-2.808-4.714 0-7.8 3.778-7.8 9.568 0 6.136 2.982 9.914 7.904 9.914 2.496 0 4.23-.936 5.79-3.189v2.392h2.565zm-7.973 9.29c3.12 0 5.096 2.74 5.096 7.107 0 4.195-2.011 6.968-5.062 6.968-3.19 0-5.304-2.808-5.304-7.037s2.115-7.037 5.27-7.037m28.296 14.283c-.312.07-.451.07-.624.07-1.006 0-1.56-.52-1.56-1.422v-10.677c0-3.224-2.358-4.957-6.83-4.957-2.67 0-4.784.762-6.032 2.114-.832.936-1.178 1.976-1.248 3.779h2.912c.243-2.219 1.56-3.224 4.264-3.224 2.635 0 4.056.97 4.056 2.704v.763c-.034 1.248-.658 1.698-3.016 2.01-4.09.52-4.714.659-5.824 1.11-2.114.901-3.19 2.496-3.19 4.853 0 3.293 2.289 5.373 5.964 5.373 2.288 0 4.125-.797 6.17-2.669.208 1.872 1.11 2.67 2.982 2.67.624 0 1.005-.07 1.976-.313zm-5.062-4.021c0 .97-.277 1.56-1.144 2.357-1.178 1.075-2.6 1.63-4.298 1.63-2.254 0-3.571-1.075-3.571-2.912 0-1.907 1.248-2.878 4.368-3.328 3.085-.416 3.675-.555 4.645-1.006zm-132.28 22.126h-2.988v9.757c-1.26-1.908-3.276-2.916-5.796-2.916-4.896 0-8.1 3.924-8.1 9.936 0 6.372 3.096 10.296 8.208 10.296 2.592 0 4.392-.972 6.012-3.312v2.484h2.664zm-8.28 9.649c3.24 0 5.292 2.844 5.292 7.38 0 4.356-2.088 7.236-5.256 7.236-3.312 0-5.508-2.916-5.508-7.308s2.196-7.308 5.472-7.308m27.944 8.172c0-2.88-.216-4.608-.756-6.012-1.224-3.096-4.104-4.968-7.632-4.968-5.256 0-8.64 3.996-8.64 10.224s3.24 10.008 8.568 10.008c4.32 0 7.308-2.448 8.064-6.552h-3.024c-.828 2.484-2.52 3.78-4.932 3.78-1.908 0-3.528-.864-4.536-2.448-.72-1.08-.972-2.16-1.008-4.032zm-13.824-2.448c.252-3.492 2.376-5.76 5.4-5.76 3.06 0 5.184 2.376 5.184 5.76zm40.228 10.872 7.38-21.996v21.996h3.168V174.09h-4.644l-7.632 22.86-7.776-22.86h-4.644v26.244h3.168v-21.996l7.452 21.996zm31.4-1.764c-.324.072-.468.072-.648.072-1.044 0-1.62-.54-1.62-1.476v-11.088c0-3.348-2.448-5.148-7.092-5.148-2.772 0-4.968.792-6.264 2.196-.864.972-1.224 2.052-1.296 3.924h3.024c.252-2.304 1.62-3.348 4.428-3.348 2.736 0 4.212 1.008 4.212 2.808v.792c-.036 1.296-.684 1.764-3.132 2.088-4.248.54-4.896.684-6.048 1.152-2.196.936-3.312 2.592-3.312 5.04 0 3.42 2.376 5.58 6.192 5.58 2.376 0 4.284-.828 6.408-2.772.216 1.944 1.152 2.772 3.096 2.772.648 0 1.044-.072 2.052-.324zm-5.256-4.176c0 1.008-.288 1.62-1.188 2.448-1.224 1.116-2.7 1.692-4.464 1.692-2.34 0-3.708-1.116-3.708-3.024 0-1.98 1.296-2.988 4.536-3.456 3.204-.432 3.816-.576 4.824-1.044zm18.008-12.924-5.22 14.688-4.824-14.688h-3.204l6.372 18.936-1.152 2.988c-.504 1.332-1.152 1.836-2.412 1.836-.504 0-.936-.072-1.584-.216v2.7c.612.324 1.224.468 2.016.468.972 0 2.016-.324 2.808-.9.936-.684 1.476-1.476 2.052-2.988l8.388-22.824zm12.032-.54c-5.328 0-8.496 3.78-8.496 10.116 0 6.372 3.168 10.116 8.532 10.116 5.328 0 8.532-3.78 8.532-9.972 0-6.552-3.096-10.26-8.568-10.26m.036 2.772c3.384 0 5.4 2.772 5.4 7.452 0 4.464-2.088 7.236-5.4 7.236-3.348 0-5.4-2.772-5.4-7.344s2.052-7.344 5.4-7.344" aria-label="Olimpíada de Mayo"/></svg>