<svg xmlns="http://www.w3.org/2000/svg" viewBox="0 0 220 140" fill="none">
	<path d="M18 78h184" stroke="#E97D7A" stroke-width="2.5" />
	<path d="M26 79h6M186 79h8" stroke="#E13C33" stroke-width="3" />
	<path d="M201 79-8-4M201 79l-8 4" stroke="#E13C33" stroke-width="3" />
	<path d="M110 14v103" stroke="#E97D7A" stroke-width="2.5" />
	<path d="M110 22v-8M110 113v8" stroke="#E13C33" stroke-width="3" />
	<path d="m110 11-4 8h8zm0 118-4-8h8z" fill="#E13C33" />
	<path
		d="M44 78c0-26 16-46 39-46 16 0 25 8 27 26 2-18 11-26 27-26 23 0 39 20 39 46"
		stroke="#138D90"
		stroke-linecap="round"
		stroke-width="9"
	/>
	<path
		d="M44 78c0 19 14 34 33 34s33-15 33-34"
		stroke="#24258B"
		stroke-dasharray="4 7"
		stroke-linecap="round"
		stroke-width="6"
	/>
	<text x="118" y="98" fill="#7B2E8B" font-family="Arial, sans-serif" font-size="18">Olimpiada</text>
	<text x="118" y="120" fill="#7B2E8B" font-family="Arial, sans-serif" font-size="18">de Mayo</text>
</svg>
