<svg xmlns="http://www.w3.org/2000/svg" width="378" height="160" fill="none" viewBox="0 0 378 160"><path fill="#0a42c0" fill-opacity=".6" d="M376.733 63.457h-13.997a1.6 1.6 0 0 0-.444-.321c-.038-.017-.088-.033-.126-.05v-.444c0-.338-.418-.618-.951-.618s-.95.28-.95.618v.387c-.24.082-.468.197-.633.345 0 0-.038.042-.101.083h-84.746v-.815c0-.338-.431-.618-.95-.618-.52 0-.95.28-.95.618v.815h-83.188v-.815c0-.338-.431-.618-.95-.618-.52 0-.95.28-.95.618v.815h-.064c-.392-.297-.798-.593-1.191-.89-28.73-21.426-55.876-41.667-85.214-41.667-37.053 0-75.727 31.428-86.178 40.557v-38.64h1.14c.52 0 .95-.28.95-.617s-.43-.617-.95-.617h-1.14V.823C15.15.37 14.58 0 13.884 0s-1.267.37-1.267.823v20.768h-1.394c-.519 0-.95.28-.95.618s.431.617.95.617h1.394v40.63H1.267c-.697 0-1.267.371-1.267.824s.57.823 1.267.823h11.059c.075.099.164.198.29.28v41.437h-1.392c-.52 0-.95.28-.95.618s.43.617.95.617h1.393v19.122c0 .461.57.823 1.267.823.696 0 1.266-.362 1.266-.823v-19.122h1.14c.52 0 .95-.28.95-.617 0-.338-.43-.618-.95-.618h-1.14V65.556c.165-.083.317-.173.444-.288.012-.017.076-.074.177-.165h87.28v.831c0 .346.43.618.95.618.519 0 .95-.272.95-.618v-.831h79.945c28.362 21.147 57.688 42.68 89.293 42.68 34.228 0 76.968-33.444 86.558-41.322.139.05.291.09.468.09.533 0 .951-.27.951-.617v-.65c.076-.066.152-.123.215-.181h14.352c.71 0 1.267-.37 1.267-.823s-.557-.823-1.267-.823m-272.732-1.433c-.52 0-.95.28-.95.618v.815h-85.43c9.209-8.043 48.149-40.088 83.707-40.088 27.273 0 54.762 20.25 81.364 40.088h-77.741v-.815c0-.338-.418-.618-.95-.618m226.369 22.44c-21.94 13.64-41.36 20.85-56.168 20.85-29.11 0-57.131-20.02-84.252-40.211h82.947v.831c0 .346.418.618.95.618s.95-.272.95-.618v-.831h82.758c-4.206 3.424-14.416 11.434-27.172 19.36z"/></svg>