<svg xmlns="http://www.w3.org/2000/svg" width="67" height="55" fill="none" viewBox="0 0 67 55"><path fill="#155dfc" d="M66.61 42.767 40.105.427.545 54.66zm-1.05-.736L37.655 29.714 40.27 1.63zM39.756 1.75l-2.604 27.977L2.123 53.31zM2.207 53.853l35.209-23.7 27.94 12.333z"/><path fill="#155dfc" fill-rule="evenodd" d="M67 42.94 0 55 40.12 0zM40.106.428l26.503 42.339L.546 54.659zM65.559 42.03 40.27 1.63l-2.613 28.083zm-.617-.534L40.443 2.36l-2.532 27.205zM39.757 1.75 2.123 53.31l35.03-23.58zm-.32.845L3.12 52.35l33.805-22.755zM2.207 53.853l63.149-11.367-27.94-12.333zm1.078-.437 61.26-11.026L37.44 30.425z" clip-rule="evenodd"/></svg>