<svg xmlns="http://www.w3.org/2000/svg" width="167" height="158" fill="none" viewBox="0 0 167 158"><path stroke="#155dfc" d="m.683 150.917 82.5-1.413m-82.5 1.413 70.537-50.429M.683 150.917l23.306-74.936M47.295 1.044l23.925 99.444M47.295 1.044l59.194 73.523M47.295 1.044 23.99 75.981m141.694 72.109L106.49 74.567m59.194 73.523L71.22 100.488m94.463 47.602-82.5 1.414M71.22 100.488l35.269-25.921M71.22 100.488l11.963 49.016M71.22 100.488 23.99 75.981m6.393-41.946 9.487 3.3m-11.55 3.77 9.488 3.299M7.695 108.5l9.075 3.77m-9.075 4.713 4.95 2.356M71.22 44.404l9.9-10.369m50.738 82.949 7.425-8.483m-21.038 35.818v12.725m7.013 0v-12.725m6.6 0v12.725m-84.563-12.725v12.725m-7.425 0v-12.725m-5.775 0v12.725"/></svg>